{"glyphs":{"0":{"ha":697,"x_min":0,"x_max":0,"o":"m 324 1017 b 225 915 286 996 242 950 b 199 782 217 897 204 838 b 115 528 186 669 164 597 b 35 336 61 449 35 389 b 49 271 35 314 39 292 b 132 138 61 242 119 149 b 165 90 136 135 150 113 b 344 8 200 38 274 8 b 488 57 397 8 450 24 b 608 235 513 79 589 192 b 640 306 615 250 629 282 b 664 443 657 342 664 390 b 646 589 664 490 658 540 b 613 697 633 636 618 685 b 585 763 607 710 594 739 b 451 1008 532 886 475 990 b 379 1029 435 1022 407 1029 b 324 1017 358 1029 339 1025 z m 396 831 b 433 779 410 817 426 794 b 476 535 471 697 476 671 b 413 286 476 378 465 338 b 363 260 393 267 381 260 b 343 261 357 260 350 260 b 225 361 288 271 233 317 b 224 389 224 369 224 378 b 256 572 224 429 233 489 b 286 697 264 606 278 661 b 369 856 310 800 335 850 b 396 831 371 856 382 844 z "},"1":{"ha":399,"x_min":0,"x_max":0,"o":"m 185 1076 b 92 978 157 1069 147 1061 b 4 781 32 889 4 828 b 15 733 4 763 8 747 b 81 657 22 721 51 686 l 135 606 l 135 313 l 135 21 l 161 -7 b 285 -53 189 -35 242 -53 b 322 -46 299 -53 311 -50 b 351 -12 344 -37 351 -35 b 349 22 351 -4 350 7 b 331 132 346 53 338 101 b 301 386 311 221 301 296 b 335 763 301 482 313 594 b 346 888 342 821 346 858 b 339 949 346 911 343 929 b 206 1079 321 1025 264 1079 b 185 1076 199 1079 192 1078 z "},"2":{"ha":735,"x_min":0,"x_max":0,"o":"m 314 911 b 101 768 151 856 111 828 b 99 746 100 760 99 751 b 119 706 99 729 104 719 b 175 682 136 690 156 682 b 246 715 199 682 222 693 b 322 750 269 738 297 750 b 364 736 338 750 353 746 b 418 601 392 714 418 646 b 336 500 418 558 390 525 b 76 358 176 428 110 392 b 38 261 42 324 38 317 l 38 247 b 86 81 38 183 44 164 b 153 -21 113 28 142 -18 b 163 -22 156 -22 160 -22 b 203 -11 174 -22 190 -18 b 397 82 328 56 358 71 b 528 93 424 90 478 93 b 631 85 569 93 610 90 b 657 81 640 82 649 81 b 725 128 693 81 725 101 b 722 142 725 132 724 138 b 657 165 715 158 701 165 b 542 158 631 165 593 163 b 292 139 397 146 328 139 b 239 165 251 139 253 147 b 218 222 225 182 218 203 b 386 322 218 278 271 304 b 640 421 515 342 588 369 b 692 504 675 454 692 478 b 674 563 692 521 685 539 b 642 615 660 589 646 613 b 564 803 619 631 574 742 b 493 953 550 890 528 938 b 464 964 478 960 465 964 b 314 911 463 964 396 939 z "},"3":{"ha":640,"x_min":0,"x_max":0,"o":"m 110 1011 b 56 924 82 999 69 981 b 47 844 50 903 47 875 b 83 658 47 769 63 682 b 124 638 96 644 110 638 b 213 743 157 638 189 675 b 247 814 222 771 238 804 b 294 832 258 826 276 832 b 393 760 339 832 393 800 b 275 575 393 721 340 639 b 175 431 200 501 175 465 b 233 388 175 403 194 388 b 274 392 246 388 258 389 b 301 394 283 393 293 394 b 388 329 338 394 360 376 b 414 250 406 299 414 275 b 399 190 414 232 408 213 b 289 115 376 136 346 115 b 182 171 243 115 235 121 b 86 225 143 207 113 225 b 36 201 68 225 53 217 b 13 154 21 186 13 171 b 107 47 13 119 46 81 b 344 -19 192 1 263 -18 l 357 -19 b 453 6 411 -19 428 -14 b 594 201 490 35 571 147 b 610 257 604 224 610 240 b 589 325 610 276 603 296 b 535 481 568 371 560 399 b 475 606 515 543 493 590 b 460 632 465 614 460 622 b 478 667 460 642 465 653 b 513 733 489 678 504 708 b 519 772 517 747 519 760 b 410 889 519 817 488 849 b 263 969 367 911 301 946 b 136 1015 210 1000 167 1015 b 110 1011 126 1015 117 1014 z "},"4":{"ha":842,"x_min":0,"x_max":0,"o":"m 417 994 b 335 921 406 988 368 954 b 219 824 301 888 249 843 b 33 592 107 749 60 689 b 19 507 25 558 19 531 b 99 388 19 457 43 426 b 336 300 196 321 224 311 b 451 285 397 294 449 288 b 476 121 461 275 475 185 b 543 -40 478 47 500 -8 b 575 -54 557 -50 567 -54 b 593 -49 581 -54 586 -53 b 624 14 614 -37 624 -21 b 617 88 624 32 622 56 b 610 174 613 118 610 147 b 632 282 610 225 617 267 b 743 304 640 292 685 300 b 856 346 831 310 856 318 b 739 433 856 363 804 403 l 671 465 l 671 632 b 622 874 671 815 661 864 b 593 878 611 876 601 878 b 557 843 569 878 557 867 b 539 772 557 828 549 794 b 475 510 518 722 475 543 b 342 456 475 472 449 463 b 278 453 314 454 293 453 b 222 468 244 453 233 457 b 203 526 210 481 203 501 b 264 676 203 575 225 638 b 311 714 285 697 307 714 b 457 879 332 714 431 826 b 486 964 476 917 486 944 b 474 994 486 978 482 986 b 450 1007 465 1003 458 1007 b 417 994 442 1007 431 1003 z "},"5":{"ha":658,"x_min":0,"x_max":0,"o":"m 174 968 b 101 929 138 964 122 956 b 11 672 46 856 11 751 b 17 619 11 653 13 635 b 219 486 39 539 118 486 b 490 361 347 485 454 436 b 504 314 500 340 504 326 b 496 275 504 303 501 293 b 397 153 479 224 440 175 b 351 138 379 143 364 138 b 300 190 331 138 318 154 b 244 244 281 231 268 242 b 232 246 240 244 236 246 b 153 175 210 246 197 232 b 83 22 104 113 83 68 b 128 -60 83 -11 92 -25 b 249 -101 171 -100 175 -101 b 488 35 358 -101 393 -82 b 631 363 582 151 631 268 b 574 508 631 421 613 471 b 507 554 551 531 521 551 b 421 576 493 557 454 568 b 282 599 389 585 325 594 b 181 617 239 603 192 611 b 160 672 167 624 160 646 b 176 753 160 696 165 725 l 193 793 l 310 786 b 386 783 339 785 365 783 b 513 826 460 783 489 794 b 528 860 524 840 528 850 b 519 889 528 868 525 876 b 331 971 494 950 456 967 l 264 971 b 174 968 225 971 190 969 z "},"6":{"ha":928,"x_min":0,"x_max":0,"o":"m 350 986 b 190 919 254 971 235 963 b 151 864 161 892 151 881 b 154 849 151 860 153 854 b 178 671 169 786 178 719 b 161 594 178 631 172 601 b 67 447 147 585 88 493 b 42 310 50 413 42 358 b 50 239 42 283 44 258 b 253 39 85 128 122 90 b 471 7 313 15 372 7 b 633 40 574 7 583 8 b 772 160 663 58 726 113 b 882 376 858 247 881 289 l 882 385 b 751 585 882 483 844 543 b 494 635 676 619 628 629 l 376 640 l 383 692 b 460 818 396 781 415 810 b 506 824 476 821 490 824 b 693 736 574 824 638 794 b 818 661 742 686 783 661 b 867 682 836 661 853 668 b 888 714 879 694 888 704 b 853 761 888 726 876 739 b 574 961 800 811 657 915 b 417 990 542 979 478 990 b 350 986 393 990 371 989 z m 494 447 b 606 292 561 433 606 369 b 389 156 606 196 542 156 l 383 156 b 208 226 275 156 238 171 b 199 257 201 239 199 249 b 214 297 199 267 204 278 b 329 418 236 339 274 381 b 440 453 364 442 399 453 b 494 447 457 453 475 451 z "},"7":{"ha":507,"x_min":0,"x_max":0,"o":"m 326 1096 b 226 1042 299 1085 254 1060 b 165 1007 199 1024 171 1007 b 153 1000 158 1007 153 1004 b 118 978 153 996 138 986 b 64 953 99 969 75 958 b 25 942 53 947 36 942 b -19 903 -4 942 -19 925 b 19 836 -19 882 -7 856 b 121 808 50 813 60 808 l 171 808 l 283 811 l 283 760 b 57 125 283 611 204 389 b 25 36 36 89 25 56 b 57 3 25 11 31 3 b 78 4 63 3 69 4 b 296 350 185 10 256 121 b 329 492 303 393 318 456 b 363 600 340 528 356 576 b 382 654 369 624 378 649 b 403 714 386 660 394 686 b 507 925 426 793 467 872 b 553 1022 538 965 553 996 b 488 1096 553 1053 531 1076 b 410 1115 460 1108 435 1115 b 326 1096 385 1115 358 1108 z "},"8":{"ha":817,"x_min":0,"x_max":0,"o":"m 481 1011 b 160 726 411 992 228 829 b 129 653 139 696 129 672 b 149 606 129 636 135 622 b 168 569 161 589 168 579 b 129 517 168 557 157 543 b 40 318 71 460 40 390 b 153 100 40 214 92 114 b 528 40 336 60 449 40 b 675 81 593 40 636 54 b 742 190 719 110 742 149 b 682 313 742 229 722 271 b 639 372 658 338 639 364 b 732 654 639 390 711 607 b 781 846 765 726 781 788 b 676 986 781 917 758 947 b 519 1015 639 1004 568 1015 b 481 1011 504 1015 490 1014 z m 553 811 b 599 726 583 790 599 760 b 585 669 599 708 594 689 b 513 606 563 626 539 606 b 432 657 489 606 461 624 b 378 761 396 699 378 732 b 428 831 378 789 394 811 b 476 846 446 842 461 846 b 553 811 497 846 519 835 z m 343 404 b 535 200 375 388 518 236 b 539 183 538 193 539 189 b 447 156 539 163 513 156 l 428 156 b 217 235 328 157 263 182 b 194 292 201 253 194 272 b 285 408 194 333 226 376 b 310 418 297 415 303 418 b 343 404 317 418 325 413 z "},"9":{"ha":763,"x_min":0,"x_max":0,"o":"m 257 985 b 82 789 190 946 97 842 b 67 692 72 756 67 722 b 254 425 67 576 133 481 b 404 396 306 401 332 396 b 513 400 451 396 500 397 b 518 401 514 400 517 401 b 539 378 531 401 539 390 b 528 349 539 369 536 358 b 276 199 456 256 361 200 l 267 199 b 167 260 226 199 217 206 b 93 322 136 293 101 322 b 15 196 63 322 15 246 b 126 74 15 165 42 138 b 178 32 147 58 171 39 b 240 1 185 25 213 13 b 290 -12 264 -7 278 -12 b 325 -3 301 -12 311 -8 b 431 61 356 10 415 46 b 533 121 438 68 472 89 b 692 285 596 154 663 224 b 718 443 714 331 718 350 l 718 464 b 583 919 717 681 664 860 b 540 954 563 935 543 951 b 500 985 538 957 519 971 b 382 1010 476 1001 429 1010 b 257 985 335 1010 285 1001 z m 367 818 b 540 669 425 793 517 715 b 561 599 554 643 561 619 b 531 529 561 572 551 550 b 460 499 510 508 485 499 b 285 654 399 499 329 556 b 258 750 267 693 258 724 b 281 808 258 774 265 793 b 319 832 296 824 306 832 b 367 818 331 832 344 828 z "}," ":{"ha":293,"x_min":0,"x_max":0,"o":""},"!":{"ha":396,"x_min":0,"x_max":0,"o":"m 239 188 b 157 119 176 164 157 147 b 210 21 157 92 182 43 b 258 7 221 13 239 7 b 340 29 285 7 317 15 b 375 104 372 49 375 54 b 301 201 375 168 349 201 b 239 188 283 201 263 197 z m 133 1099 b 114 1081 122 1096 114 1088 b 82 986 114 1074 99 1031 b 24 726 31 853 24 829 l 24 668 b 119 307 26 460 64 321 b 146 304 128 304 136 304 b 229 339 179 304 215 318 b 239 371 236 350 239 357 b 208 501 239 392 231 425 b 196 644 201 525 196 589 b 222 801 196 732 201 760 b 254 856 236 829 250 853 b 333 983 271 869 328 961 b 335 993 335 986 335 989 b 325 1028 335 1004 331 1019 b 150 1100 301 1063 206 1100 b 133 1099 143 1100 139 1100 z "},"\"":{"ha":478,"x_min":0,"x_max":0,"o":"m 149 1078 b 108 1017 128 1067 117 1050 b 74 901 101 990 86 939 b 58 828 64 869 58 846 b 88 786 58 804 68 792 b 104 785 93 785 99 785 b 176 847 131 785 151 804 b 225 1011 210 906 225 965 b 179 1088 225 1057 208 1088 b 149 1078 171 1088 160 1083 z m 336 1142 b 308 1124 328 1139 315 1131 b 271 831 288 1101 271 946 b 283 711 271 775 275 728 b 342 658 301 676 322 658 b 386 700 358 658 374 672 b 404 929 400 733 403 781 l 404 963 b 367 1150 404 1107 399 1150 b 336 1142 358 1150 349 1146 z "},"#":{"ha":1182,"x_min":0,"x_max":0,"o":"m 897 897 b 861 768 883 879 861 801 b 807 704 861 729 839 704 b 799 706 804 704 801 706 b 771 736 776 708 771 708 b 771 776 771 746 769 758 b 772 803 771 786 772 794 b 761 858 772 833 769 850 b 649 899 738 882 688 899 b 574 818 608 899 588 876 b 535 757 569 800 551 774 b 493 732 517 739 507 732 b 461 738 485 732 475 733 b 339 750 431 746 383 750 b 222 736 290 750 243 746 b 153 607 179 717 153 668 b 206 532 153 557 171 532 b 247 540 218 532 232 535 b 272 547 258 544 265 547 b 286 533 282 547 286 543 b 267 478 286 522 279 504 l 239 422 l 157 415 b 44 344 68 407 44 392 b 114 274 44 306 67 282 b 158 240 143 268 158 257 b 142 203 158 231 153 218 b 121 146 128 183 121 163 b 147 99 121 126 129 110 b 179 88 158 90 169 88 b 268 169 203 88 226 111 b 367 251 317 238 326 244 b 401 254 379 253 392 254 b 447 232 431 254 447 246 b 424 160 447 225 436 193 l 401 99 l 431 76 b 632 8 465 49 586 8 l 639 8 b 682 47 668 13 682 25 b 671 89 682 58 679 72 b 640 211 651 131 640 174 b 646 254 640 226 642 242 l 656 292 l 724 286 b 839 268 761 283 813 275 b 1004 250 867 261 940 253 l 1119 244 l 1128 278 b 1131 310 1131 289 1131 299 b 1097 392 1131 346 1118 378 b 1004 413 1083 400 1042 410 b 929 425 967 415 932 421 b 928 431 928 426 928 428 b 939 483 928 440 932 461 b 1003 543 954 532 957 535 b 1100 596 1097 560 1100 560 l 1100 603 b 997 725 1100 681 1063 725 b 969 811 971 725 969 728 b 953 904 969 879 967 899 b 924 910 942 908 932 910 b 897 897 913 910 904 906 z m 751 557 b 760 540 757 551 760 546 b 694 482 760 526 742 513 b 553 438 647 451 621 444 b 493 433 525 435 506 433 b 469 451 471 433 469 439 b 568 540 469 478 493 499 b 696 575 608 563 657 575 b 751 557 722 575 742 568 z "},"$":{"ha":717,"x_min":0,"x_max":0,"o":"m 274 1079 b 254 1049 263 1071 254 1058 b 163 975 254 1031 221 1003 b 7 819 119 954 24 857 b -6 744 -1 800 -6 772 b 10 657 -6 714 0 681 b 175 521 31 607 79 567 b 260 467 218 500 257 476 b 263 429 261 463 263 449 b 243 192 263 353 251 192 b 218 208 239 192 226 200 b 138 250 193 233 160 250 b 124 246 132 250 128 249 b 96 167 107 236 96 204 b 103 115 96 150 99 132 b 249 -25 119 56 186 -10 b 313 -57 276 -32 304 -46 b 400 -89 325 -76 368 -89 b 435 -81 415 -89 428 -86 b 444 -57 443 -74 449 -62 b 440 -42 442 -53 440 -47 b 474 13 440 -21 456 7 b 583 132 507 24 564 85 b 668 393 642 271 668 354 b 489 606 668 476 586 574 b 414 689 431 625 414 636 b 417 736 414 701 415 718 b 443 815 422 806 424 815 l 453 815 b 517 790 469 814 499 804 b 597 765 539 775 571 765 b 638 778 615 765 629 769 b 650 825 644 785 650 804 b 507 956 650 879 626 897 b 396 1047 424 996 414 1004 b 340 1094 378 1089 374 1094 l 335 1094 b 274 1079 313 1094 285 1088 z m 254 750 b 235 703 254 713 251 703 b 196 740 222 703 207 718 b 181 782 186 761 181 774 b 203 813 181 792 188 799 b 226 829 215 824 221 829 b 242 815 231 829 236 824 b 254 750 249 804 254 776 z m 439 401 b 472 329 460 376 472 349 b 396 214 472 290 422 214 b 364 381 389 214 364 340 b 399 442 364 407 382 442 b 439 401 403 442 421 424 z "},"%":{"ha":957,"x_min":0,"x_max":0,"o":"m 735 593 b 632 453 690 569 651 515 b 608 376 625 432 615 399 b 597 308 601 353 597 331 b 613 219 597 282 601 256 b 715 53 631 158 675 89 b 782 29 733 36 760 29 b 825 44 800 29 815 33 b 846 179 833 54 842 113 b 931 449 854 299 854 300 b 964 532 953 492 964 515 b 942 569 964 546 957 556 b 819 614 910 599 864 614 b 735 593 790 614 761 607 z m 808 438 b 793 290 804 419 797 353 b 749 138 785 163 778 138 b 683 274 708 138 683 201 b 707 388 683 313 690 354 b 775 472 732 439 743 454 b 799 479 785 478 793 479 b 811 461 807 479 811 474 b 808 438 811 456 810 447 z m 681 908 b 551 801 650 879 603 839 b 346 475 463 736 411 656 b 276 322 338 454 307 385 b 219 151 238 242 219 192 b 257 68 219 118 232 93 b 335 29 286 38 304 29 b 422 92 375 29 422 63 b 432 124 422 99 426 114 b 499 350 442 142 468 228 b 521 414 507 381 515 408 b 531 438 526 419 531 431 b 607 572 531 449 592 557 b 651 628 610 575 629 600 b 731 719 674 656 708 696 b 803 811 753 743 785 785 b 826 865 818 835 826 851 b 778 914 826 885 811 899 b 725 931 754 925 739 931 b 681 908 710 931 696 924 z m 164 1094 b 64 935 131 1081 81 1000 b 42 861 57 907 46 872 b 8 660 25 818 8 722 b 42 563 8 603 11 593 b 114 529 64 540 86 529 b 190 550 136 529 161 536 b 264 632 228 567 242 582 b 292 704 279 665 292 699 b 313 760 292 710 301 735 b 378 963 344 829 378 936 b 282 1096 378 1015 333 1076 b 226 1104 267 1101 247 1104 b 164 1094 204 1104 181 1101 z m 219 938 b 200 785 219 906 211 843 b 153 639 176 656 175 639 b 136 640 149 639 143 640 b 93 682 107 643 100 649 b 88 738 89 699 88 717 b 165 971 88 828 122 940 b 197 985 179 981 189 985 b 219 938 213 985 219 969 z "},"&":{"ha":844,"x_min":0,"x_max":0,"o":"m 350 1036 b 200 847 264 993 200 913 b 286 693 200 810 231 756 b 349 546 319 657 349 583 b 344 526 349 538 347 531 b 285 500 338 518 311 507 b 183 472 258 493 214 481 b 47 338 110 453 47 392 b 242 56 47 258 157 100 b 328 22 261 46 300 31 b 500 7 360 13 436 7 b 600 17 547 7 588 10 b 658 33 622 28 642 33 b 700 18 674 33 688 29 b 744 -3 717 4 731 -3 b 785 13 757 -3 769 1 b 808 54 800 24 808 39 b 788 99 808 69 801 83 l 765 124 l 804 188 b 842 275 825 222 842 263 b 779 333 842 307 813 333 b 706 265 747 333 735 321 b 656 218 689 233 674 218 b 582 286 635 218 613 240 b 549 369 560 319 549 347 b 571 415 549 388 557 403 b 654 653 626 465 654 550 b 640 789 654 696 650 740 b 478 1046 611 929 564 1004 b 424 1061 456 1056 440 1061 b 350 1036 404 1061 383 1053 z m 507 881 b 549 815 517 872 536 842 b 567 757 561 789 567 775 b 560 708 567 744 565 731 b 513 633 549 658 532 633 b 424 739 489 633 458 668 b 385 856 397 792 385 829 b 422 901 385 882 397 896 b 443 904 429 903 436 904 b 507 881 465 904 489 897 z m 404 271 b 518 171 439 236 489 190 b 567 118 550 149 567 131 b 524 96 567 106 553 99 l 515 96 b 354 142 475 96 407 114 b 243 257 313 163 267 211 b 229 300 233 275 229 289 b 292 333 229 324 249 333 b 404 271 336 333 347 329 z "},"'":{"ha":390,"x_min":0,"x_max":0,"o":"m 157 1100 b 113 1071 138 1092 118 1079 b 65 783 89 1035 65 875 b 69 732 65 761 67 744 b 104 703 75 713 88 703 b 300 897 156 703 246 786 b 338 1053 324 944 338 1008 b 326 1100 338 1075 333 1092 b 253 1117 318 1110 288 1117 b 157 1100 218 1117 181 1111 z "},"(":{"ha":419,"x_min":0,"x_max":0,"o":"m 154 1006 b 46 685 83 957 46 838 b 61 507 46 629 50 569 b 115 314 79 400 90 361 b 133 204 126 292 133 246 b 121 124 133 171 129 139 b 107 17 114 110 107 63 l 107 -10 b 147 -108 107 -64 113 -72 l 188 -151 l 275 -150 b 401 -75 374 -149 392 -137 b 404 -53 403 -65 404 -58 b 374 -22 404 -36 397 -31 b 331 44 343 -11 331 8 b 338 104 331 61 332 79 b 350 208 346 143 350 178 b 254 418 350 288 322 344 b 150 692 168 513 150 557 b 175 868 150 793 154 826 b 256 938 197 914 225 938 b 279 932 263 938 271 935 b 297 929 286 929 292 929 b 329 967 317 929 329 943 b 269 1007 329 979 311 992 b 201 1028 233 1021 215 1028 b 154 1006 188 1028 176 1021 z "},")":{"ha":397,"x_min":0,"x_max":0,"o":"m 99 1031 b -4 922 60 1014 -4 947 b 35 899 -4 903 1 899 b 115 839 76 899 92 888 b 224 682 129 810 208 696 b 264 501 250 658 264 585 b 236 300 264 435 254 360 b 181 132 206 201 192 161 b 153 58 176 121 163 86 b 100 -18 140 25 121 -3 b 40 -107 53 -51 40 -71 b 71 -143 40 -132 51 -143 b 104 -135 81 -143 90 -140 b 239 31 150 -115 196 -61 b 364 597 322 207 356 360 b 365 681 365 633 365 660 b 333 803 365 739 360 751 b 290 878 314 840 294 875 b 269 908 286 881 276 894 b 197 1004 257 933 242 953 b 129 1036 179 1025 154 1036 b 99 1031 119 1036 108 1035 z "},"*":{"ha":685,"x_min":0,"x_max":0,"o":"m 231 989 b 225 936 226 985 225 963 b 214 883 225 910 219 888 b 211 882 213 883 213 882 b 154 910 201 882 178 893 b 89 939 125 929 104 939 b 63 908 74 939 65 929 l 63 901 b 143 818 63 867 93 835 b 199 771 182 804 199 793 b 188 731 199 760 196 747 b 174 679 178 711 174 694 b 208 632 174 654 186 638 b 221 629 213 631 217 629 b 268 663 244 629 268 644 b 315 703 268 679 297 703 b 333 692 325 703 333 699 b 404 617 333 665 379 617 b 493 668 447 617 486 639 b 494 681 494 672 494 676 b 460 732 494 696 486 708 b 425 778 440 750 425 769 b 490 790 425 786 460 790 b 621 843 575 790 621 810 b 610 875 621 853 617 864 b 579 897 600 889 596 897 b 486 878 564 897 538 890 b 378 860 436 865 400 860 b 333 921 340 860 333 878 b 319 974 333 943 328 968 b 246 993 307 983 268 993 b 231 989 239 993 233 992 z "},"+":{"ha":682,"x_min":0,"x_max":0,"o":"m 276 713 b 268 643 271 701 268 678 b 269 588 268 626 268 608 b 272 518 271 556 272 533 b 251 486 272 488 267 486 b 185 507 239 486 208 496 b 93 538 143 528 113 538 b 65 506 74 538 65 526 b 68 482 65 499 67 492 b 126 410 74 450 107 410 b 151 393 132 410 142 403 b 236 335 161 383 199 358 l 306 293 l 311 200 b 325 99 314 149 321 103 b 361 90 331 93 344 90 b 424 104 385 90 414 96 b 444 181 432 111 440 144 b 517 332 456 286 460 297 b 615 464 596 381 615 406 b 579 538 615 514 606 538 b 504 506 561 538 538 526 b 447 479 478 489 457 479 b 442 482 444 479 443 481 b 393 653 431 493 406 579 b 315 738 385 704 347 738 b 276 713 300 738 286 729 z "},",":{"ha":343,"x_min":0,"x_max":0,"o":"m 65 199 b 57 163 60 192 57 179 b 60 129 57 153 58 142 b 121 4 69 63 79 42 b 151 -44 143 -15 151 -24 b 147 -78 151 -53 149 -64 b 144 -111 146 -92 144 -103 b 174 -160 144 -132 151 -140 b 219 -187 194 -178 207 -187 b 269 -151 233 -187 247 -175 b 307 -56 294 -125 307 -92 b 200 147 307 8 269 81 b 93 211 156 189 119 211 b 65 199 82 211 72 207 z "},"-":{"ha":758,"x_min":0,"x_max":0,"o":"m 239 565 b 67 346 144 532 67 433 b 99 285 67 304 76 285 b 135 296 108 285 121 289 b 175 322 154 306 172 318 b 325 426 189 342 290 413 b 411 442 350 436 379 442 b 567 408 458 442 511 431 b 667 376 611 390 657 376 b 690 406 683 376 690 386 b 679 458 690 418 686 436 b 582 550 660 514 622 550 b 536 561 568 550 546 556 b 404 576 526 567 467 572 b 333 579 376 578 353 579 b 239 565 292 579 267 575 z "},".":{"ha":379,"x_min":0,"x_max":0,"o":"m 133 264 b 50 174 74 233 50 210 b 58 131 50 161 53 147 b 133 53 71 90 82 79 b 228 24 172 33 200 24 b 236 25 231 24 233 25 b 304 119 286 28 304 49 b 303 168 304 133 304 150 b 274 275 299 240 293 260 b 224 293 258 288 243 293 b 133 264 200 293 171 283 z "},"/":{"ha":654,"x_min":0,"x_max":0,"o":"m 433 989 b 351 950 375 986 351 975 b 358 919 351 942 353 932 b 379 878 367 900 375 881 b 433 743 393 865 433 767 b 256 475 433 682 389 614 b 31 104 139 354 79 256 b 10 6 17 60 10 28 b 49 -36 10 -25 22 -36 b 194 143 94 -36 154 36 b 250 282 226 226 238 258 b 260 315 256 292 260 308 b 438 488 260 344 342 422 b 636 772 597 594 636 642 b 633 849 636 794 635 821 b 608 964 629 914 621 950 b 486 990 593 981 551 990 b 433 989 469 990 453 990 z "},":":{"ha":374,"x_min":0,"x_max":0,"o":"m 128 206 b 44 115 68 175 44 151 b 53 72 44 103 47 89 b 128 -6 65 32 76 21 b 222 -35 167 -25 194 -35 b 231 -33 225 -35 228 -33 b 299 61 281 -31 299 -10 b 297 110 299 75 299 92 b 268 217 293 182 288 201 b 218 235 253 229 238 235 b 128 206 194 235 165 225 z m 182 758 b 172 683 175 746 172 715 b 178 619 172 660 174 636 b 239 581 183 597 214 581 b 263 588 247 581 256 583 b 286 654 272 594 283 622 b 288 685 288 665 288 676 b 269 744 288 708 283 724 b 217 781 254 768 235 781 b 182 758 203 781 190 774 z "},";":{"ha":333,"x_min":0,"x_max":0,"o":"m 92 244 b 74 121 79 226 74 193 b 97 -3 74 35 76 19 b 117 -51 111 -18 117 -28 b 114 -97 117 -62 115 -78 b 111 -137 113 -114 111 -126 b 129 -175 111 -164 117 -175 b 142 -172 133 -175 136 -174 b 210 126 160 -165 201 18 b 213 172 211 144 213 158 b 149 267 213 240 196 263 l 135 267 b 92 244 114 267 103 261 z m 108 704 b 69 642 83 700 69 678 b 71 619 69 635 69 628 b 164 533 76 578 92 564 b 224 517 192 522 210 517 b 244 521 231 517 238 518 b 290 606 274 533 290 571 b 278 649 290 622 288 638 b 138 707 249 685 193 707 b 108 704 128 707 118 706 z "},"<":{"ha":633,"x_min":0,"x_max":0,"o":"m 449 774 b 322 656 436 767 379 714 b 135 510 239 571 201 542 b 4 393 26 457 4 438 b 201 238 4 343 38 318 b 533 126 401 140 432 129 b 547 125 538 126 543 125 b 640 186 614 125 640 143 b 443 293 640 236 594 261 b 246 382 346 314 246 358 b 268 415 246 394 256 408 b 354 483 281 422 321 453 b 501 600 440 561 465 581 b 575 704 536 618 575 672 b 551 756 575 715 564 738 b 494 788 536 776 517 788 b 449 774 481 788 464 782 z "},"=":{"ha":714,"x_min":0,"x_max":0,"o":"m 69 411 b 57 376 61 400 57 388 b 153 304 57 338 96 304 b 376 261 186 304 275 288 b 647 213 489 232 600 213 b 669 217 660 213 667 214 b 683 251 672 219 679 235 b 685 268 685 257 685 263 b 668 301 685 281 681 292 b 490 347 646 321 544 346 b 376 376 475 347 425 361 b 129 438 250 418 175 438 b 69 411 99 438 81 428 z m 15 607 b 13 588 13 601 13 596 b 36 517 13 563 22 531 b 131 486 43 510 86 496 b 256 457 175 476 232 463 b 547 417 333 438 439 424 b 619 414 581 415 603 414 b 672 439 654 414 660 419 b 688 475 682 454 688 467 b 576 501 688 496 656 501 b 299 567 475 501 443 508 b 85 619 243 589 150 613 b 44 622 67 621 54 622 b 15 607 25 622 19 618 z "},">":{"ha":690,"x_min":0,"x_max":0,"o":"m 103 756 b 82 676 90 742 82 710 b 99 596 82 647 88 617 b 288 518 135 526 154 518 b 424 515 354 518 415 517 b 436 503 433 514 436 508 b 404 467 436 493 425 479 b 286 365 386 456 333 410 b 151 260 239 321 179 272 b 64 218 124 247 85 228 b 21 168 35 204 24 192 l 21 158 b 64 119 21 132 33 119 b 179 146 89 119 126 128 b 451 307 288 182 319 201 b 667 557 610 435 667 499 b 661 588 667 568 664 576 b 431 686 651 617 568 653 b 219 750 332 710 285 725 b 138 775 176 767 153 775 b 103 756 124 775 114 768 z "},"?":{"ha":682,"x_min":0,"x_max":0,"o":"m 197 257 b 158 175 171 233 158 203 b 218 103 158 140 179 110 b 269 89 239 99 261 92 b 307 106 278 86 294 93 b 332 185 324 122 332 154 b 308 261 332 215 324 246 b 257 282 294 275 276 282 b 197 257 236 282 215 274 z m 260 1122 b 56 1004 174 1101 126 1074 b -18 897 6 956 -18 922 b 1 863 -18 883 -11 872 b 53 835 15 851 39 839 b 72 833 58 833 65 833 b 194 890 113 833 168 857 b 299 996 260 971 272 985 b 325 1001 308 1000 317 1001 b 369 990 338 1001 350 999 b 463 911 418 971 463 932 b 469 897 463 903 465 897 b 506 776 490 897 506 829 b 492 717 506 749 501 726 b 429 689 485 710 457 697 b 238 497 276 644 247 614 b 235 453 236 482 235 467 b 240 406 235 429 236 411 b 294 385 246 397 271 388 b 318 383 304 383 311 383 b 360 408 338 383 346 389 b 464 492 399 463 417 479 b 669 644 590 526 646 567 b 676 686 675 661 676 674 b 660 760 676 704 671 724 b 604 886 647 799 622 856 b 572 953 586 917 572 947 b 561 963 572 958 567 963 b 544 985 556 963 549 972 b 415 1103 533 1019 467 1079 b 317 1131 372 1122 346 1131 b 260 1122 300 1131 282 1128 z "},"@":{"ha":1065,"x_min":0,"x_max":0,"o":"m 428 935 b 263 885 364 914 290 892 b 121 733 171 860 121 804 b 53 414 121 690 89 543 b 24 244 33 346 24 290 b 63 126 24 192 36 154 b 175 54 79 108 131 76 b 363 -57 249 19 347 -39 b 481 -142 372 -68 454 -126 b 546 -156 496 -150 522 -156 b 596 -142 571 -156 592 -151 b 597 -132 597 -139 597 -135 b 500 -56 597 -111 568 -87 b 200 211 417 -15 256 126 b 147 396 165 264 147 324 b 189 626 147 461 161 538 b 463 864 225 744 317 824 b 531 875 489 871 510 875 b 794 765 583 875 642 847 b 993 531 924 697 993 613 b 985 481 993 514 990 497 b 904 367 968 432 960 424 b 800 285 851 313 818 285 b 778 343 785 285 778 304 b 768 439 778 371 774 414 b 751 514 763 464 754 499 b 468 715 738 583 581 694 b 443 718 460 717 451 718 b 322 626 379 718 322 674 b 331 599 322 617 325 608 b 417 524 349 565 396 524 b 458 546 426 524 446 533 b 493 567 472 560 481 567 b 543 549 504 567 519 560 b 582 504 569 536 582 519 b 550 468 582 490 571 476 b 424 388 478 439 444 418 b 396 349 411 369 399 351 b 374 300 393 346 382 324 b 367 257 368 286 367 272 b 417 138 367 218 383 178 b 504 101 443 106 454 101 b 574 85 543 101 565 97 b 682 40 594 57 636 40 b 757 54 707 40 731 46 b 888 165 790 65 888 149 b 922 231 888 169 903 199 b 1063 544 1025 406 1063 475 b 1039 661 1063 579 1054 614 b 836 897 1001 783 954 838 b 572 972 768 932 625 972 l 569 972 b 428 935 554 972 492 956 z m 647 304 b 560 194 647 239 613 194 b 492 240 515 194 492 215 b 529 296 492 258 504 278 b 626 349 579 331 610 349 b 647 304 642 349 647 335 z "},"A":{"ha":792,"x_min":0,"x_max":0,"o":"m 235 971 b 186 667 197 914 186 839 b 169 424 186 564 179 468 b 75 218 154 350 113 260 b 0 83 28 168 0 115 b 13 57 0 71 4 63 b 46 50 19 53 31 50 b 154 75 76 50 119 58 b 239 153 189 92 214 114 b 403 238 281 215 292 221 b 506 249 449 244 481 249 b 594 188 556 249 572 232 b 646 39 618 142 646 64 b 713 -35 646 -3 681 -35 b 744 -19 725 -35 736 -31 b 757 114 753 -10 757 51 b 744 265 757 175 753 239 b 722 365 739 283 729 329 b 638 567 699 488 679 532 b 582 601 615 585 590 601 b 429 736 542 601 457 676 b 394 864 418 761 401 819 b 304 996 375 985 368 996 b 235 971 261 996 249 992 z m 314 668 b 363 546 321 642 343 588 b 392 458 381 508 392 472 b 293 403 392 436 319 403 b 265 435 281 403 271 415 b 257 576 260 454 257 517 b 265 703 257 635 260 690 b 281 719 269 714 275 719 b 314 668 292 719 304 701 z "},"B":{"ha":756,"x_min":0,"x_max":0,"o":"m 100 1042 b 90 979 93 1038 90 1015 b 110 747 90 929 96 850 b 117 639 115 708 117 675 b 88 414 117 571 107 501 b 43 72 58 285 43 160 b 57 -31 43 25 47 -10 b 94 -57 65 -50 69 -57 b 136 -54 104 -57 118 -56 b 251 -35 172 -51 225 -42 b 415 -19 279 -28 353 -19 l 528 -19 l 561 19 b 626 113 610 78 613 82 b 647 140 633 128 643 140 b 668 174 651 140 661 156 b 690 206 675 192 685 206 b 731 333 708 206 731 282 b 729 353 731 340 731 347 b 608 507 721 410 667 479 b 572 539 583 518 572 528 b 589 567 572 547 576 556 b 635 678 621 597 635 631 b 465 917 635 760 588 825 b 378 982 422 949 383 978 b 282 1026 367 990 331 1007 b 139 1047 253 1038 183 1047 b 100 1042 119 1047 106 1044 z m 338 765 b 435 719 378 747 421 726 b 465 669 456 710 465 690 b 421 592 465 643 450 615 b 339 567 400 575 369 567 b 257 594 307 567 275 576 b 235 649 240 611 235 621 b 238 694 235 660 236 675 b 258 799 244 776 247 799 b 338 765 263 799 297 783 z m 350 460 b 503 393 450 432 478 421 b 519 363 514 381 519 372 b 513 339 519 356 517 349 b 336 272 488 281 464 272 b 208 300 219 272 219 272 b 197 389 203 315 197 356 b 244 488 197 451 215 488 b 257 486 249 488 253 488 b 350 460 269 482 311 471 z "},"C":{"ha":739,"x_min":0,"x_max":0,"o":"m 401 1065 b 226 940 340 1046 307 1021 b 61 726 104 818 61 764 b 33 674 61 717 49 692 b 8 615 15 651 8 642 b 11 575 8 604 10 592 b 28 471 15 539 22 493 b 63 304 33 449 49 374 b 101 161 76 235 93 171 b 300 107 118 142 183 124 b 483 51 376 96 392 90 b 589 25 525 33 560 25 b 699 101 638 25 671 50 b 719 150 713 126 719 139 b 704 185 719 160 714 168 b 594 285 678 229 638 267 b 568 292 583 290 575 292 b 543 274 560 292 553 286 b 519 236 532 261 522 243 b 474 225 517 228 497 225 b 410 238 449 225 421 229 b 360 279 401 244 379 264 b 239 531 283 340 239 435 b 247 596 239 553 243 574 b 356 817 265 676 317 783 b 422 842 374 833 400 842 b 460 828 438 842 451 838 b 500 714 476 811 500 743 b 560 644 500 689 538 644 b 618 714 578 644 600 674 b 632 838 625 731 632 786 b 544 1051 632 954 606 1019 b 449 1071 521 1064 482 1071 b 401 1065 431 1071 414 1069 z "},"D":{"ha":785,"x_min":0,"x_max":0,"o":"m 89 1076 b 67 789 83 1061 74 932 b 49 458 60 646 51 497 b 47 419 47 446 47 433 b 90 189 47 340 65 242 b 111 135 101 165 111 140 b 131 99 111 129 121 111 b 197 78 143 83 147 78 b 344 83 226 78 272 81 b 565 117 524 92 540 93 b 738 546 608 158 644 246 b 751 706 746 574 751 639 b 715 897 751 815 750 829 b 269 1094 644 1035 575 1067 b 136 1104 201 1101 161 1104 b 89 1076 100 1104 96 1096 z m 529 864 b 592 722 572 833 592 789 b 576 606 592 689 586 650 b 544 453 567 563 554 496 b 528 319 535 410 528 351 b 476 194 528 250 513 214 b 450 186 468 190 460 186 b 371 207 435 186 413 193 l 292 235 l 276 289 b 268 343 271 308 268 322 b 314 596 268 383 281 444 b 331 738 322 636 331 697 b 329 799 331 761 329 783 b 367 872 329 860 335 863 b 446 885 393 881 421 885 b 529 864 479 885 510 878 z "},"E":{"ha":860,"x_min":0,"x_max":0,"o":"m 182 1011 b 156 788 165 985 161 950 b 81 404 149 588 144 565 b 26 139 47 321 26 210 b 40 75 26 106 31 83 b 75 67 46 71 60 67 b 150 85 101 67 135 74 b 282 117 174 101 238 117 b 300 115 288 117 294 115 b 414 86 326 113 378 100 b 690 26 525 44 597 28 l 724 26 b 801 51 775 26 783 31 b 824 108 817 68 824 89 b 806 158 824 126 818 144 b 721 193 794 171 757 185 b 476 282 619 215 569 235 b 342 335 429 307 368 331 b 290 376 297 342 293 347 l 290 383 b 303 481 290 404 296 446 l 317 551 l 376 550 b 501 535 408 550 465 542 b 613 525 535 528 575 525 b 743 549 674 525 728 533 b 758 578 753 558 758 568 b 685 651 758 601 733 628 b 481 685 626 681 611 682 b 333 693 403 686 338 689 b 332 703 332 694 332 699 b 367 871 332 738 356 857 b 622 908 379 888 521 908 b 836 976 751 908 836 935 b 633 1025 836 1015 803 1024 b 335 1033 542 1025 408 1029 l 201 1042 z "},"F":{"ha":635,"x_min":0,"x_max":0,"o":"m 106 1049 b 67 997 76 1038 67 1025 b 69 968 67 989 68 979 b 128 771 75 926 108 815 b 156 658 146 732 156 699 b 94 400 156 600 136 528 b 51 167 57 286 51 257 b 64 39 51 111 57 53 b 144 -11 78 8 113 -11 b 185 1 160 -11 174 -7 b 226 238 222 31 226 61 b 249 436 226 399 229 417 b 288 454 261 449 269 454 b 322 450 296 454 307 453 b 481 442 351 446 422 442 b 615 468 576 442 589 443 b 642 508 633 485 642 497 b 614 550 642 521 632 532 b 508 579 589 575 576 579 b 364 592 465 579 401 585 l 294 604 l 289 699 b 275 828 286 750 279 808 l 268 864 l 399 864 b 576 910 524 864 576 874 b 550 972 576 925 568 946 b 415 1050 518 1021 494 1035 b 251 1060 379 1057 314 1060 b 106 1049 186 1060 124 1056 z "},"G":{"ha":806,"x_min":0,"x_max":0,"o":"m 208 1001 b 143 957 190 993 161 975 b 115 894 124 939 115 932 b 131 726 115 865 121 817 b 133 685 132 713 133 699 b 65 453 133 613 111 543 b 21 293 26 378 21 354 b 50 167 21 238 28 211 b 207 8 78 113 181 8 b 225 -6 214 8 222 3 b 306 -18 228 -14 254 -18 l 313 -18 b 446 18 386 -18 399 -14 b 513 51 479 40 499 51 b 539 19 525 51 532 40 b 583 -14 549 -7 556 -14 b 636 -3 601 -14 625 -8 b 696 24 646 3 674 14 b 771 178 750 47 771 89 b 672 501 771 311 721 476 b 556 513 658 508 608 513 b 426 501 500 513 444 510 b 392 447 404 492 392 471 b 394 426 392 440 393 433 b 454 393 399 411 415 401 b 524 382 483 386 515 382 b 557 319 543 382 549 374 b 560 290 558 308 560 297 b 535 246 560 272 553 264 b 393 197 504 215 450 197 b 367 199 385 197 375 197 b 244 318 307 206 264 247 b 238 400 240 333 238 363 b 267 693 238 496 250 639 b 360 786 285 756 321 786 b 488 681 401 786 450 750 b 569 617 510 640 540 617 b 590 621 576 617 583 618 b 619 669 610 629 619 644 b 554 851 619 706 597 761 b 417 1001 524 915 468 975 b 313 1017 397 1011 354 1017 b 208 1001 271 1017 231 1011 z "},"H":{"ha":888,"x_min":0,"x_max":0,"o":"m 372 221 b 346 354 372 256 363 303 b 332 429 338 379 332 411 l 332 435 l 336 464 l 467 467 l 518 467 b 663 393 633 467 651 454 b 703 101 682 293 692 238 b 753 -86 714 -56 719 -78 b 774 -89 760 -87 768 -89 b 825 135 815 -89 825 -39 l 825 174 b 813 425 824 279 818 392 b 782 721 792 544 782 643 b 801 872 782 783 788 835 b 810 903 807 886 810 894 b 753 940 810 929 781 940 b 725 928 738 940 725 936 b 696 857 725 921 711 889 b 640 656 661 786 647 733 b 624 582 638 622 629 589 b 317 531 606 560 410 531 b 269 538 292 531 274 533 b 221 703 253 554 221 664 b 289 857 221 747 253 818 b 372 1003 333 904 372 974 b 325 1036 372 1029 363 1035 l 314 1036 b 264 1029 293 1036 272 1033 b 165 981 254 1024 211 1003 b 65 922 119 958 74 932 b 18 694 38 890 18 797 l 18 683 b 44 546 18 606 22 588 b 86 482 60 518 79 490 b 100 458 93 474 100 464 b 114 435 100 453 107 443 b 189 208 146 401 168 331 b 274 107 204 122 215 107 b 372 221 322 107 372 158 z "},"I":{"ha":365,"x_min":0,"x_max":0,"o":"m 194 1024 b 71 869 117 981 92 950 b 43 771 67 851 53 807 b 29 649 33 738 29 693 b 47 507 29 599 36 547 b 92 269 71 424 92 310 b 143 44 92 219 121 92 b 203 8 158 13 165 8 b 350 74 247 8 350 46 b 314 169 350 88 335 128 b 204 601 244 311 204 474 b 206 632 204 613 206 622 b 250 867 210 714 214 738 b 267 975 261 907 267 946 b 254 1026 267 1000 263 1018 b 232 1038 247 1033 240 1038 b 194 1024 222 1038 211 1033 z "},"J":{"ha":713,"x_min":0,"x_max":0,"o":"m 538 1074 b 504 903 519 1061 504 989 b 399 249 503 747 435 321 b 306 185 378 206 344 185 b 139 282 257 185 199 218 b 49 339 103 319 74 339 b 7 318 33 339 19 332 b -11 276 -4 306 -11 290 b 117 150 -11 236 33 192 b 196 107 157 129 193 110 b 294 64 204 99 253 76 b 364 53 318 57 340 53 b 596 251 476 53 581 136 b 607 492 600 278 604 386 b 628 743 610 621 617 703 b 679 978 671 896 679 933 b 603 1071 679 1031 663 1050 b 560 1083 579 1079 568 1083 b 538 1074 553 1083 547 1079 z "},"K":{"ha":776,"x_min":0,"x_max":0,"o":"m 597 1033 b 589 1006 593 1029 589 1017 b 574 974 589 994 583 982 b 539 919 564 967 549 942 b 464 767 508 851 475 783 b 313 622 438 728 326 622 b 283 865 296 622 283 728 b 221 1006 283 958 269 988 b 181 1014 206 1011 193 1014 b 107 924 143 1014 122 986 b 82 831 103 906 90 864 b 65 417 69 783 65 696 b 89 47 65 69 67 63 b 160 32 104 36 129 32 b 240 43 185 32 214 35 b 283 88 278 54 283 60 b 271 142 283 106 278 129 b 257 221 264 154 257 190 l 257 231 b 282 307 257 269 263 285 b 321 335 299 326 308 335 b 365 307 333 335 346 325 b 436 250 382 290 415 264 b 546 154 457 235 507 193 b 635 85 585 115 625 85 b 703 158 656 85 679 110 b 721 215 714 181 721 199 b 651 317 721 244 701 271 b 494 538 572 390 494 501 b 496 543 494 539 496 542 b 532 596 500 554 515 578 b 708 911 583 651 653 776 b 721 961 717 931 721 946 b 699 1015 721 982 714 1000 b 625 1040 685 1031 650 1040 b 597 1033 613 1040 603 1039 z "},"L":{"ha":718,"x_min":0,"x_max":0,"o":"m 132 1071 b 81 968 94 1057 81 1031 b 82 928 81 956 81 943 b 100 765 85 883 93 810 b 108 667 106 733 108 700 b 83 482 108 606 100 543 b 50 361 74 449 58 393 b 35 233 39 324 35 274 b 47 158 35 197 39 167 b 217 118 72 133 136 118 b 529 58 310 118 417 97 b 636 31 574 43 621 31 b 736 96 676 31 736 69 b 636 163 736 122 676 163 b 576 172 621 163 594 167 b 500 194 558 178 524 188 b 288 267 378 228 301 254 b 279 288 282 272 279 278 b 296 356 279 300 285 319 b 344 685 336 490 344 538 l 344 738 b 288 1058 343 950 329 1022 b 201 1083 269 1075 236 1083 b 132 1071 178 1083 154 1079 z "},"M":{"ha":1007,"x_min":0,"x_max":0,"o":"m 24 947 b 50 894 24 935 31 922 b 163 683 111 804 150 732 b 169 638 167 667 169 653 b 129 431 169 607 160 561 b 96 292 118 382 103 319 b 85 121 89 264 85 186 b 113 -28 85 7 86 0 b 226 -65 136 -51 183 -65 b 276 -58 244 -65 263 -64 b 303 -28 297 -50 303 -46 b 265 118 303 15 286 61 b 232 296 243 176 232 239 b 260 435 232 347 242 396 b 293 492 275 467 289 492 b 314 436 297 492 307 467 b 488 243 339 328 418 243 b 515 249 497 243 506 244 b 633 367 549 261 633 346 b 644 382 633 375 638 382 b 656 392 651 382 656 386 b 757 557 656 410 732 533 b 781 572 768 567 775 572 b 803 540 792 572 803 557 b 781 408 803 519 796 482 b 743 206 764 331 747 239 b 726 119 739 172 731 133 b 724 100 725 114 724 107 b 815 -12 724 50 771 -12 b 883 222 864 -12 872 14 b 913 464 892 361 900 433 b 944 540 922 488 938 522 b 985 696 967 588 985 625 b 961 831 985 746 976 800 b 726 1015 915 926 793 1015 b 692 1001 713 1015 700 1011 b 667 922 685 993 672 957 b 643 788 661 886 650 826 b 535 551 629 706 558 551 b 486 615 526 551 504 581 b 425 708 468 650 440 692 b 326 819 410 725 365 775 b 142 997 229 931 174 985 b 107 1003 131 1001 119 1003 b 24 947 69 1003 24 983 z "},"N":{"ha":860,"x_min":0,"x_max":0,"o":"m 649 1064 b 631 957 636 1051 631 1007 b 642 847 631 919 633 879 b 654 715 650 813 654 767 b 629 492 654 640 646 556 b 586 393 610 417 599 393 b 511 524 565 393 531 453 b 376 863 469 678 399 853 b 367 879 371 865 367 871 b 318 946 367 886 344 917 b 250 992 290 976 271 992 b 182 944 229 992 210 976 b 150 889 160 918 150 907 b 153 871 150 883 151 878 b 167 740 163 824 167 781 b 115 518 167 665 151 597 b 33 182 43 357 33 319 l 33 174 b 107 -44 33 10 50 -44 b 138 -40 117 -44 126 -43 b 186 115 175 -32 178 -26 b 254 368 193 229 200 257 b 315 449 278 418 303 449 b 324 432 321 449 324 443 b 397 278 324 419 356 353 b 444 181 404 265 425 221 b 696 -32 500 63 594 -18 b 718 -33 704 -33 713 -33 b 754 -12 736 -33 743 -28 b 771 38 765 3 771 17 b 744 174 771 64 763 101 b 721 329 729 236 721 283 b 779 563 721 396 739 460 b 810 810 807 635 810 651 l 810 822 b 740 1067 810 1000 799 1036 b 689 1082 719 1078 703 1082 b 649 1064 674 1082 660 1076 z "},"O":{"ha":821,"x_min":0,"x_max":0,"o":"m 340 972 b 144 789 265 935 144 822 b 113 713 144 779 129 746 b 29 469 79 649 81 653 b 10 343 17 422 10 381 b 179 104 10 235 65 158 b 356 72 240 75 258 72 b 667 167 507 72 592 99 b 778 617 749 240 778 364 b 754 836 778 754 775 782 b 490 1007 708 957 631 1007 l 486 1007 b 340 972 424 1007 399 1001 z m 525 832 b 621 578 588 789 621 694 b 608 447 621 536 617 493 b 517 250 590 353 564 297 b 356 181 471 204 411 181 b 225 238 306 181 258 199 b 204 329 208 257 204 274 l 204 347 b 217 472 204 394 210 450 b 240 567 224 494 233 536 b 322 785 271 717 279 740 b 457 853 365 829 414 853 b 525 832 481 853 504 846 z "},"P":{"ha":753,"x_min":0,"x_max":0,"o":"m 142 971 b 124 828 135 963 126 903 b 104 638 121 757 111 671 b 54 306 76 507 71 475 b 42 129 47 231 42 161 b 43 111 42 119 42 114 b 92 94 47 100 68 94 b 156 111 115 94 140 100 b 186 168 169 121 182 144 b 278 326 203 263 233 314 b 436 367 288 329 358 347 b 657 458 564 399 617 419 b 733 699 703 503 733 606 b 726 769 733 724 731 747 b 322 986 692 939 604 986 l 317 986 b 142 971 194 986 151 982 z m 581 658 b 607 588 599 642 607 614 b 576 513 607 558 597 531 b 390 464 540 482 474 464 b 293 524 315 464 293 472 b 296 565 293 535 294 549 b 389 683 306 658 317 674 b 464 688 415 688 442 688 b 581 658 518 688 560 678 z "},"Q":{"ha":913,"x_min":0,"x_max":0,"o":"m 439 1099 b 264 1018 407 1094 346 1065 b 100 854 217 990 100 875 b 90 815 100 843 96 825 b 35 479 42 721 35 682 b 56 225 35 310 39 271 b 440 22 100 110 193 60 b 521 -37 474 17 489 7 b 611 -100 553 -82 576 -100 b 658 -92 625 -100 640 -97 b 753 47 738 -68 753 -46 b 779 154 753 118 756 131 b 896 376 853 228 896 310 b 892 411 896 388 894 400 b 775 551 881 457 836 510 b 663 711 693 607 663 647 b 667 761 663 726 664 743 b 692 947 685 864 692 913 b 690 976 692 958 692 968 b 617 1082 685 1018 654 1063 b 478 1100 596 1093 529 1100 b 439 1099 464 1100 450 1100 z m 432 906 l 469 889 l 469 771 b 576 497 469 622 482 592 b 688 336 654 421 688 374 b 669 290 688 319 682 306 b 642 272 660 278 651 272 b 619 278 636 272 629 274 b 501 289 600 285 551 289 b 374 278 449 289 396 286 b 342 250 351 271 342 261 b 361 215 342 240 347 231 b 383 176 374 203 383 186 b 365 160 383 165 376 160 b 208 279 328 160 242 219 b 183 438 188 318 183 328 l 183 540 b 240 854 186 764 192 799 b 319 900 253 868 288 889 b 388 919 356 913 374 919 b 432 906 400 919 411 914 z "},"R":{"ha":754,"x_min":0,"x_max":0,"o":"m 38 1074 b 28 996 31 1061 28 1032 b 89 628 28 888 54 706 b 150 481 124 549 135 524 b 190 278 176 408 190 340 b 154 115 190 218 178 163 b 125 32 138 82 125 46 b 168 7 125 10 131 7 b 231 29 199 7 218 14 b 299 229 250 51 299 194 b 340 357 299 263 324 338 b 369 375 350 369 360 375 b 436 274 392 375 413 343 b 544 67 469 175 504 106 b 599 31 571 42 585 31 b 629 40 607 31 617 33 b 713 140 676 65 713 108 b 636 268 713 167 668 242 b 551 403 624 279 564 372 b 544 426 547 413 544 419 b 574 479 544 439 553 453 b 622 538 593 504 615 529 b 700 790 665 582 700 701 b 696 833 700 806 699 821 b 414 1032 682 917 568 997 b 326 1053 390 1038 350 1047 b 113 1092 249 1072 176 1085 b 72 1094 94 1093 82 1094 b 38 1074 51 1094 46 1089 z m 479 810 b 563 701 533 785 558 753 b 564 665 564 688 564 675 b 536 582 564 625 556 604 b 418 529 504 546 460 529 b 315 592 374 529 332 551 b 299 644 307 613 299 636 b 271 721 299 653 286 688 b 250 792 257 750 250 774 b 332 840 250 826 275 840 b 379 838 346 840 363 839 b 479 810 408 835 453 822 z "},"S":{"ha":729,"x_min":0,"x_max":0,"o":"m 332 1069 b 225 964 297 1051 292 1044 b 146 872 199 931 163 890 b 57 678 100 822 57 728 b 190 461 57 613 83 572 b 361 325 261 388 304 354 b 486 207 461 275 486 251 b 365 83 486 154 417 83 b 142 240 290 83 204 144 b 51 303 114 282 79 303 b 7 249 26 303 7 285 b 40 179 7 221 15 203 b 82 149 58 163 78 149 b 126 114 86 149 106 132 b 203 51 147 96 182 67 b 246 17 224 36 243 21 b 382 -36 261 -3 349 -36 b 654 178 476 -36 601 63 b 685 317 674 219 685 272 b 671 389 685 346 681 371 b 474 561 647 433 546 522 b 399 604 436 582 401 600 b 342 649 396 608 369 628 b 268 733 313 671 281 707 l 246 778 l 269 825 b 342 908 296 878 308 890 b 378 919 356 915 367 919 b 485 846 404 919 432 899 b 596 763 543 788 574 763 b 621 775 606 763 613 767 b 638 849 632 786 638 815 b 625 929 638 878 635 908 b 404 1086 582 1025 489 1086 b 332 1069 379 1086 354 1081 z "},"T":{"ha":800,"x_min":0,"x_max":0,"o":"m 58 1125 b -7 1047 14 1108 3 1094 b -11 1008 -10 1033 -11 1021 b 24 907 -11 969 1 935 b 171 865 47 878 54 876 b 321 815 286 856 321 849 b 313 776 321 806 318 792 b 299 649 303 747 299 699 b 317 496 299 590 304 529 b 363 371 326 468 347 414 b 390 224 382 318 390 274 b 446 93 390 131 394 119 b 492 79 464 83 479 79 b 551 219 525 79 538 117 b 556 288 554 242 556 264 b 519 600 556 344 546 422 b 511 692 514 636 511 667 b 549 768 511 743 525 768 b 581 758 563 768 578 764 b 701 739 588 747 653 739 b 739 742 717 739 729 740 b 797 818 776 750 797 781 b 792 854 797 829 796 842 b 756 917 785 876 768 903 b 450 1097 706 968 525 1075 b 161 1136 367 1122 250 1136 b 58 1125 117 1136 81 1133 z "},"U":{"ha":815,"x_min":0,"x_max":0,"o":"m 463 943 b 458 899 460 936 458 919 b 479 678 458 838 467 732 b 529 547 486 649 508 590 b 597 343 575 454 597 390 b 581 283 597 319 592 300 b 518 242 563 256 540 242 b 413 331 485 242 449 271 b 361 407 392 364 368 399 b 196 753 283 489 226 608 b 121 940 154 947 160 936 b 101 942 114 940 107 942 b 57 874 71 942 57 929 b 82 640 57 829 65 757 b 96 488 92 569 96 531 b 88 358 96 453 93 415 b 72 150 79 282 72 189 l 72 138 b 106 49 72 83 75 75 b 182 19 129 28 151 19 b 283 42 208 19 239 26 b 458 69 328 57 392 67 b 524 72 486 71 507 72 b 597 47 565 72 575 67 b 682 11 625 24 656 11 b 724 24 697 11 711 15 b 750 86 743 36 750 40 b 747 174 750 106 749 133 b 729 361 744 246 736 331 b 700 526 722 392 710 464 b 689 636 693 569 689 606 b 718 774 689 685 699 725 b 739 826 722 785 732 810 b 750 883 747 846 750 867 b 732 926 750 906 744 921 b 536 961 707 936 624 951 b 492 964 517 963 501 964 b 463 943 471 964 468 958 z "},"V":{"ha":742,"x_min":0,"x_max":0,"o":"m 79 983 b 11 882 39 961 11 918 b 13 867 11 876 11 871 b 71 769 18 842 54 782 b 133 643 82 761 121 681 b 179 447 146 607 160 546 b 279 125 196 361 254 175 b 365 61 300 82 325 61 b 431 72 383 61 404 65 b 494 156 468 83 472 89 b 528 411 513 210 521 274 b 640 763 539 625 549 654 b 732 922 703 836 732 886 b 731 938 732 928 732 933 b 690 974 725 963 710 974 b 500 807 644 974 569 913 b 386 463 418 685 386 588 b 378 388 386 421 382 388 b 332 535 367 388 350 442 b 310 625 325 571 315 611 b 300 671 304 639 300 658 b 289 711 300 683 294 700 b 244 844 283 722 264 782 b 143 1006 210 960 185 1006 b 79 983 125 1006 106 997 z "},"W":{"ha":1082,"x_min":0,"x_max":0,"o":"m 1011 999 b 817 688 943 954 832 775 b 757 453 797 569 771 468 b 740 443 750 446 744 443 b 724 543 728 443 724 471 b 725 657 724 574 724 611 b 729 788 728 718 729 760 b 710 856 729 842 724 849 b 686 861 703 860 694 861 b 618 818 663 861 636 844 b 600 715 606 799 600 768 b 579 590 600 664 593 624 b 451 421 556 535 471 421 b 443 471 446 421 443 436 b 444 542 443 489 443 513 b 446 593 446 561 446 578 b 285 833 446 710 417 744 b 208 888 246 860 211 883 b 78 986 182 919 93 986 b 10 910 42 986 10 950 b 111 746 10 864 38 821 b 185 650 138 718 171 675 b 243 404 208 607 214 582 b 331 14 257 324 310 83 b 372 -44 342 -25 357 -44 b 388 -37 378 -44 382 -42 b 404 -3 396 -31 404 -14 b 414 36 404 8 408 26 b 438 104 419 47 431 76 b 483 225 444 132 465 186 b 575 413 513 290 529 324 b 608 442 583 429 599 442 l 611 442 b 621 421 618 442 621 442 b 604 225 621 396 615 342 b 603 189 603 214 603 201 b 639 21 603 119 618 42 b 676 8 647 13 661 8 b 819 104 725 8 793 50 b 850 218 829 125 843 175 b 1053 894 913 604 940 692 b 1081 993 1069 924 1081 969 b 1075 1008 1081 1001 1079 1008 b 1056 1014 1072 1008 1063 1011 l 1051 1014 b 1011 999 1042 1014 1025 1008 z "},"X":{"ha":785,"x_min":0,"x_max":0,"o":"m 119 1008 b 63 944 82 989 63 967 b 65 932 63 940 64 936 b 144 813 71 917 132 824 b 176 768 149 810 163 789 b 208 725 190 747 206 728 b 285 603 239 697 285 624 b 167 432 285 564 247 510 b 68 306 125 392 83 336 b 39 168 49 265 39 214 b 89 50 39 104 57 50 b 190 117 101 50 157 86 b 367 199 215 139 263 161 b 456 250 396 210 436 232 b 504 276 474 265 494 276 b 507 275 506 276 506 275 b 535 218 515 272 528 246 b 614 64 568 93 579 64 b 639 68 621 64 629 67 b 721 174 685 76 721 122 b 685 333 721 210 701 294 b 663 388 678 349 669 372 b 588 504 656 403 622 456 b 525 607 553 553 525 599 b 638 785 525 626 603 750 b 742 924 686 833 742 908 b 717 963 742 933 731 949 b 669 986 701 978 682 986 b 656 975 661 986 656 982 b 638 964 656 969 647 964 b 494 871 618 964 581 940 b 428 824 461 844 432 824 b 400 874 424 824 411 846 b 196 1029 364 963 275 1029 l 194 1029 b 119 1008 176 1029 142 1019 z "},"Y":{"ha":613,"x_min":0,"x_max":0,"o":"m 421 856 b 275 693 351 785 286 711 b 236 660 264 675 246 660 b 203 801 213 660 203 700 l 203 836 l 203 858 b 158 972 203 938 193 972 b 69 939 138 972 110 960 b 7 878 25 915 7 899 b 13 856 7 871 10 864 b 32 807 18 840 26 819 b 69 703 38 794 54 747 b 133 567 85 658 114 596 b 199 399 179 497 183 485 b 207 333 203 372 207 354 b 178 125 207 297 199 249 b 175 103 176 115 175 108 b 196 68 175 88 181 79 b 258 50 214 56 236 50 b 356 90 293 50 329 64 b 413 260 378 114 413 214 b 361 417 413 301 406 322 b 336 492 347 447 336 481 b 388 603 336 514 368 583 b 401 625 394 610 401 621 b 467 703 401 629 431 664 b 532 782 503 742 532 778 b 546 803 532 786 539 796 b 585 871 554 811 571 842 b 603 928 597 899 603 914 b 596 956 603 936 600 946 b 567 986 589 972 576 986 b 421 856 557 986 490 926 z "},"Z":{"ha":761,"x_min":0,"x_max":0,"o":"m 353 1078 b 194 1018 322 1072 213 1031 b 129 999 189 1014 160 1007 b 15 932 29 974 15 964 b 122 878 15 896 50 878 b 232 867 150 878 199 872 b 389 843 265 861 336 850 l 485 832 l 478 760 b 394 449 464 608 433 497 b 231 376 363 411 286 376 b 101 293 176 376 126 344 b 83 192 89 268 83 238 b 100 7 83 147 89 90 b 132 -53 107 -46 108 -53 b 140 -51 135 -53 138 -51 b 249 -22 158 -51 206 -37 b 596 29 335 10 468 29 b 719 50 664 29 692 33 b 767 121 746 67 767 100 b 763 135 767 126 765 132 b 508 158 750 147 636 157 b 385 168 440 158 385 164 b 418 196 385 174 400 185 b 542 325 467 225 525 285 b 563 503 550 346 560 422 b 590 714 567 600 575 665 b 683 972 624 822 675 964 b 690 994 688 976 690 985 b 676 1033 690 1008 685 1025 b 483 1079 649 1060 585 1075 b 411 1081 458 1081 433 1081 b 353 1078 383 1081 361 1079 z "},"[":{"ha":311,"x_min":0,"x_max":0,"o":"m 81 -196 b 135 -178 94 -196 111 -189 b 236 -76 211 -139 236 -115 l 236 -67 b 207 -26 233 -37 226 -29 b 197 -25 204 -26 200 -25 b 165 -35 185 -25 172 -29 b 149 -42 160 -39 154 -42 b 121 -1 132 -42 121 -22 b 122 29 121 7 121 17 b 175 293 129 81 154 204 b 188 611 182 321 188 463 b 197 894 188 760 193 888 b 242 908 201 901 222 908 b 313 950 283 908 313 925 b 310 960 313 954 311 956 b 250 985 303 981 294 985 b 163 992 221 985 181 988 b 143 993 154 993 149 993 b 119 972 131 993 125 988 b 101 765 114 958 106 865 b 61 189 89 471 74 247 b 32 -83 43 106 32 -11 b 81 -196 32 -139 46 -196 z "},"\\":{"ha":551,"x_min":0,"x_max":0,"o":"m 81 1043 b 15 888 47 994 15 917 b 67 732 15 868 40 804 b 176 403 124 575 133 546 b 301 113 229 231 239 207 b 421 -1 364 17 383 -1 l 422 -1 b 514 57 461 -1 478 10 b 540 158 531 79 540 115 b 515 290 540 200 532 247 b 356 540 496 342 432 443 b 292 672 344 554 301 643 b 275 788 288 685 281 736 b 193 1033 263 908 238 985 b 128 1072 169 1058 147 1072 b 81 1043 111 1072 94 1063 z "},"]":{"ha":408,"x_min":0,"x_max":0,"o":"m 33 1096 b 32 1060 22 1089 22 1082 b 132 994 46 1031 65 1018 b 200 864 179 978 190 956 b 239 563 214 728 228 625 b 257 385 244 526 253 446 b 260 314 258 356 260 333 b 228 163 260 265 253 238 b 81 0 179 14 171 6 b -8 -31 19 -4 6 -8 b -22 -85 -17 -43 -22 -65 l -22 -92 b 19 -132 -19 -125 -15 -128 b 35 -133 24 -132 29 -133 b 96 -125 56 -133 79 -129 b 197 -96 117 -119 164 -106 l 260 -78 l 314 33 b 383 185 343 94 375 164 b 396 288 392 208 396 246 b 374 460 396 346 389 411 b 286 953 339 569 325 650 b 146 1075 279 1011 244 1042 b 51 1103 86 1096 64 1103 b 33 1096 43 1103 40 1100 z "},"^":{"ha":463,"x_min":0,"x_max":0,"o":"m 167 1007 b 153 890 158 994 153 946 b 94 718 153 788 140 747 b 65 679 79 708 65 690 b 163 590 65 651 133 590 b 240 701 206 590 240 640 b 257 760 240 722 249 747 b 272 776 265 771 268 776 b 289 760 276 776 281 771 b 306 714 297 747 306 726 b 351 633 307 675 331 633 b 394 700 374 633 394 665 b 249 1013 394 728 272 988 b 208 1028 238 1024 222 1028 b 167 1007 192 1028 175 1021 z "},"_":{"ha":761,"x_min":0,"x_max":0,"o":"m 240 40 b 68 -179 146 7 68 -92 b 100 -240 68 -221 78 -240 b 136 -229 110 -240 122 -236 b 176 -203 156 -219 174 -207 b 326 -99 190 -183 292 -112 b 413 -83 351 -89 381 -83 b 568 -117 460 -83 513 -94 b 668 -149 613 -135 658 -149 b 692 -119 685 -149 692 -139 b 681 -67 692 -107 688 -89 b 583 25 661 -11 624 25 b 538 36 569 25 547 31 b 406 51 528 42 468 47 b 335 54 378 53 354 54 b 240 40 293 54 268 50 z "},"`":{"ha":342,"x_min":0,"x_max":0,"o":"m 297 789 b 301 807 300 794 301 800 b 260 881 301 828 288 851 b 213 939 250 890 231 917 b 111 1026 165 1000 138 1026 b 72 1010 99 1026 86 1021 b 39 954 50 993 39 974 b 42 936 39 949 39 942 b 214 769 50 913 183 783 b 246 761 225 764 235 761 b 297 789 268 761 289 772 z "},"a":{"ha":685,"x_min":0,"x_max":0,"o":"m 67 643 b 63 624 64 636 63 629 b 115 572 63 600 81 583 b 190 560 142 564 167 560 b 263 582 222 560 249 567 b 282 628 275 596 274 628 b 300 608 286 628 292 622 b 336 521 324 569 336 540 b 278 486 336 496 317 486 b 247 488 269 486 258 486 b 208 490 231 489 218 490 b 157 460 185 490 176 483 b 61 272 126 424 82 336 b 50 139 53 249 50 193 b 61 15 50 85 53 32 b 167 -35 75 -17 115 -35 b 190 -33 175 -35 182 -35 b 335 19 238 -29 321 1 b 399 47 346 35 376 47 b 410 46 403 47 407 47 b 435 43 417 44 425 43 b 471 46 446 43 460 44 b 521 89 500 51 511 61 b 588 224 543 149 557 178 b 650 417 629 286 650 349 b 647 456 650 429 649 443 b 524 613 638 557 615 585 b 261 703 428 642 394 703 l 257 703 b 67 643 139 703 81 683 z m 365 303 b 379 238 375 293 379 265 b 363 163 379 206 374 172 b 324 151 353 156 339 151 b 228 192 290 151 247 167 b 206 243 213 211 206 228 b 274 303 206 269 228 290 b 338 314 304 311 324 314 b 365 303 350 314 357 311 z "},"b":{"ha":664,"x_min":0,"x_max":0,"o":"m 107 1025 b 49 964 65 1010 49 994 b 56 921 49 953 51 938 b 93 810 63 893 79 843 b 151 501 143 683 151 643 b 63 189 151 344 139 300 b 8 75 26 136 8 96 b 15 58 8 67 10 61 b 93 47 22 54 57 50 b 179 32 129 44 167 38 b 254 3 192 26 225 13 b 353 -36 283 -7 328 -25 b 471 -65 394 -56 438 -65 b 513 -58 486 -65 501 -62 b 614 343 575 -35 614 119 b 510 676 614 507 585 601 b 415 746 479 707 443 733 b 389 765 401 753 389 761 b 342 786 389 769 368 779 b 281 899 292 799 281 818 b 215 1022 281 949 251 1003 b 164 1038 196 1033 181 1038 b 107 1025 149 1038 132 1033 z m 404 579 l 439 549 l 439 424 b 356 167 439 253 410 167 b 332 172 347 167 340 169 b 292 206 317 178 299 193 b 279 379 283 221 279 299 b 293 571 279 465 285 554 b 343 613 307 599 324 613 b 404 579 360 613 381 600 z "},"c":{"ha":690,"x_min":0,"x_max":0,"o":"m 350 842 b 72 664 243 824 126 749 b 40 524 51 631 40 579 b 65 376 40 474 49 422 b 101 174 82 332 94 264 b 143 6 111 47 115 35 b 356 -61 197 -51 226 -61 l 365 -61 b 656 75 535 -61 585 -37 b 681 128 672 101 681 117 b 658 163 681 139 674 149 b 618 182 644 176 632 182 b 551 140 600 182 579 169 b 461 94 521 110 493 94 b 404 108 443 94 424 99 b 343 236 371 124 360 147 b 276 414 336 278 308 351 b 222 560 242 482 222 535 b 350 672 222 628 279 672 b 407 663 368 672 388 669 b 460 651 431 656 444 651 b 513 661 474 651 489 654 b 592 694 542 669 578 685 b 611 717 606 703 611 708 b 601 742 611 722 607 731 b 417 847 564 814 503 847 b 350 842 396 847 374 846 z "},"d":{"ha":643,"x_min":0,"x_max":0,"o":"m 471 1000 b 403 853 431 978 413 939 b 333 732 390 732 390 732 b 204 686 293 732 265 722 b 35 388 58 599 35 557 b 79 131 35 256 51 161 b 297 79 110 97 181 81 b 433 65 354 79 417 72 b 485 53 453 57 469 53 b 535 76 506 53 521 61 b 586 268 568 114 586 186 b 563 439 586 322 578 382 b 539 640 547 494 539 574 b 550 747 539 685 542 724 b 615 967 600 901 615 954 b 535 1015 615 997 578 1015 b 471 1000 514 1015 490 1011 z m 358 542 b 386 426 382 518 386 506 b 376 318 386 378 382 329 b 351 267 371 307 360 285 b 253 189 329 218 292 189 b 219 196 242 189 231 192 b 176 281 190 208 176 232 b 206 461 176 321 186 379 b 308 568 215 503 278 568 b 358 542 321 568 344 556 z "},"e":{"ha":653,"x_min":0,"x_max":0,"o":"m 254 785 b 172 749 239 778 203 763 b 39 617 113 722 50 661 b 35 574 36 604 35 589 b 93 376 35 515 56 440 b 108 261 100 364 107 313 b 111 143 110 210 111 157 b 219 43 113 110 168 58 b 363 31 243 36 308 31 b 503 54 443 31 469 35 b 607 153 560 86 583 106 b 619 199 615 169 619 185 b 571 261 619 226 603 247 b 540 268 561 265 550 268 b 468 215 514 268 492 251 b 361 154 444 181 396 154 b 347 156 357 154 351 154 b 310 190 335 158 317 175 b 303 217 306 201 303 210 b 314 246 303 225 307 235 b 381 272 328 267 342 272 b 472 310 421 272 438 279 b 576 542 535 367 576 464 b 571 585 576 557 575 571 b 431 761 554 647 489 731 b 303 794 390 782 342 794 b 254 785 283 794 267 790 z m 400 550 b 428 507 419 531 428 519 b 413 472 428 497 422 486 b 344 440 399 451 371 440 b 304 451 329 440 315 443 b 268 524 282 465 268 496 b 275 556 268 535 269 546 b 326 581 283 572 304 581 b 400 550 351 581 381 569 z "},"f":{"ha":481,"x_min":0,"x_max":0,"o":"m 240 1106 b 67 967 150 1086 88 1036 b 53 831 57 935 53 883 b 75 665 53 763 61 694 b 106 418 94 626 106 522 b 97 278 106 369 103 321 b 76 75 83 168 76 110 b 93 25 76 44 82 33 b 151 8 107 14 129 8 b 210 28 175 8 199 15 b 257 206 229 50 247 119 b 279 397 261 239 271 325 b 289 564 286 454 289 514 b 288 619 289 585 289 603 b 285 672 286 640 285 658 b 318 721 285 708 293 721 b 369 713 331 721 347 718 b 424 706 389 708 411 706 b 433 707 429 706 431 706 b 447 738 443 711 447 722 b 422 804 447 760 439 788 b 282 857 399 828 374 836 b 251 896 257 863 251 868 b 307 979 251 942 269 969 b 326 981 314 981 319 981 b 436 924 358 981 393 963 b 497 889 463 900 482 889 b 529 908 510 889 521 894 b 532 921 532 913 532 917 b 494 988 532 933 521 951 b 297 1113 429 1075 371 1113 b 240 1106 279 1113 261 1110 z "},"g":{"ha":701,"x_min":0,"x_max":0,"o":"m 513 1088 b 397 969 486 1078 415 1004 b 381 906 386 949 381 926 b 408 835 381 878 390 853 b 435 804 424 819 436 806 b 388 783 433 803 411 794 b 226 703 343 764 321 751 b 89 551 167 672 108 608 b 68 444 82 531 72 482 b 44 322 64 407 54 351 b 33 239 36 297 33 268 b 54 126 33 199 40 156 b 194 39 67 99 100 78 l 232 22 l 203 4 b 117 -15 183 -8 153 -15 b 29 -46 69 -15 54 -21 b -10 -119 4 -72 -10 -97 b 6 -158 -10 -133 -4 -147 b 128 -208 39 -194 69 -208 b 178 -206 143 -208 158 -207 b 388 -190 226 -201 321 -194 b 575 -128 515 -182 546 -172 b 590 -67 585 -112 590 -90 b 550 53 590 -25 575 24 b 388 149 513 94 449 132 b 232 185 278 178 251 185 b 186 203 221 185 199 193 b 176 214 181 207 176 211 b 351 222 176 222 214 222 b 640 315 571 222 597 231 b 668 422 658 350 668 385 b 581 689 668 486 642 564 b 543 792 556 740 543 763 b 578 929 543 819 554 854 b 590 1011 586 956 590 986 b 568 1083 590 1047 583 1075 b 539 1093 556 1090 547 1093 b 513 1088 532 1093 524 1092 z m 392 613 b 447 476 417 599 447 524 b 304 360 447 411 371 360 b 240 383 279 360 257 367 b 219 425 225 397 219 407 b 222 457 219 433 221 443 b 296 594 232 522 251 560 b 357 621 319 613 339 621 b 392 613 368 621 381 618 z "},"h":{"ha":769,"x_min":0,"x_max":0,"o":"m 60 1056 b 57 1026 58 1051 57 1040 b 60 976 57 1011 57 994 b 82 714 75 843 82 778 b 78 601 82 679 81 646 b 72 390 75 554 72 474 b 75 246 72 340 74 290 b 164 -14 82 -1 85 -14 b 222 18 204 -14 222 -7 b 207 75 222 32 217 50 b 182 275 190 118 182 201 b 197 403 182 328 188 376 b 219 464 206 424 215 451 b 329 668 250 546 307 651 b 361 682 340 678 351 682 b 440 518 396 682 421 628 b 508 378 454 436 460 428 b 578 276 556 329 578 303 b 526 189 578 253 561 228 b 474 93 490 147 474 115 b 535 54 474 68 494 54 b 615 65 556 54 583 58 b 736 300 701 85 736 153 b 664 467 736 383 718 425 b 601 514 646 481 618 501 b 490 722 550 553 511 624 b 336 819 478 782 417 819 b 281 850 292 819 286 822 b 264 900 278 867 269 889 b 253 933 258 911 253 925 b 92 1065 253 960 143 1050 b 60 1056 74 1071 65 1068 z "},"i":{"ha":506,"x_min":0,"x_max":0,"o":"m 290 850 b 254 824 278 843 263 832 b 106 754 238 807 125 754 b 57 732 99 754 76 744 b 19 678 32 717 19 700 b 75 575 19 651 38 619 b 193 207 167 465 183 413 b 333 40 197 117 281 40 b 376 99 358 40 376 57 b 372 140 376 110 375 125 b 332 383 356 218 332 308 b 372 503 332 433 342 475 b 469 653 397 526 453 613 b 478 696 475 667 478 681 b 385 842 478 751 442 813 b 326 863 357 856 342 863 b 290 850 315 863 304 858 z m 189 1128 b 157 1051 169 1115 157 1085 b 158 1033 157 1046 157 1039 b 235 961 167 974 176 964 b 261 960 244 961 253 960 b 408 1061 360 960 408 993 b 369 1140 408 1097 390 1133 b 290 1154 344 1149 318 1154 b 189 1128 251 1154 214 1144 z "},"j":{"ha":422,"x_min":0,"x_max":0,"o":"m 244 843 b 235 821 238 839 235 832 b 238 796 235 814 235 806 b 251 688 242 776 249 726 b 253 657 253 676 253 667 b 124 439 253 583 226 543 l 35 350 l 35 285 b 68 128 35 240 46 190 b 101 11 86 78 101 25 b 24 -57 101 -22 63 -57 b -39 -124 -14 -57 -39 -86 b -36 -144 -39 -131 -37 -137 b 39 -197 -28 -182 -7 -197 b 75 -194 50 -197 61 -196 b 233 -114 150 -185 186 -165 b 297 43 276 -67 297 -17 b 276 158 297 78 290 117 b 254 265 263 200 254 233 b 294 403 254 308 268 349 b 369 644 336 489 343 511 b 386 768 381 697 386 738 b 371 826 386 797 381 817 b 278 850 357 840 311 850 b 244 843 263 850 251 847 z m 49 1136 b 36 1101 40 1128 36 1115 b 67 1032 36 1079 46 1053 b 322 908 111 988 276 908 b 386 981 371 908 386 925 b 363 1046 386 1014 381 1031 b 97 1150 297 1104 171 1150 b 49 1136 75 1150 58 1146 z "},"k":{"ha":657,"x_min":0,"x_max":0,"o":"m 211 1056 b 132 964 169 1033 139 1000 b 93 814 125 926 107 854 b 74 467 88 796 78 640 b 57 142 69 293 61 147 b 57 103 53 136 53 118 b 126 75 64 76 68 75 b 282 114 193 75 253 89 b 314 175 292 122 307 150 b 368 269 335 247 347 269 l 374 269 b 464 122 400 265 438 204 b 550 21 486 53 511 21 b 593 31 563 21 576 25 b 629 65 617 39 629 46 b 560 231 629 90 608 133 b 489 356 539 272 507 329 b 461 413 469 385 461 397 b 467 439 461 421 464 428 b 490 524 472 458 483 496 b 610 763 519 642 547 696 b 632 801 625 778 632 790 b 607 840 632 814 624 825 b 546 865 589 857 568 865 b 424 775 501 865 453 832 b 392 732 413 751 397 732 b 297 619 372 732 331 685 b 253 557 279 586 260 557 b 228 613 246 557 235 582 b 215 718 219 649 215 683 b 249 896 215 772 226 829 b 282 1036 271 963 282 1008 b 257 1071 282 1060 274 1071 b 211 1056 246 1071 231 1065 z "},"l":{"ha":340,"x_min":0,"x_max":0,"o":"m 138 1042 b 108 693 122 1025 118 971 b 86 332 101 513 92 350 b 64 233 81 314 71 269 b 40 136 57 197 46 154 b 31 51 35 119 31 81 b 131 -35 31 -14 56 -35 b 193 -6 176 -35 183 -32 b 210 69 199 11 206 46 b 228 163 214 94 222 135 b 256 289 233 190 246 246 b 281 565 272 364 281 457 b 267 831 281 646 275 736 b 233 1047 254 963 243 1038 b 190 1061 224 1057 207 1061 b 138 1042 169 1061 149 1054 z "},"m":{"ha":1046,"x_min":0,"x_max":0,"o":"m 654 826 b 474 721 572 811 503 771 b 436 690 461 700 449 690 b 404 708 426 690 415 696 b 310 751 378 738 344 751 b 288 750 303 751 296 751 b 214 742 260 744 236 742 b 157 749 194 742 176 744 b 140 750 151 750 146 750 b 101 738 126 750 113 746 b 78 465 81 721 79 706 b 65 163 76 325 72 190 b 35 -4 44 76 35 26 b 69 -53 35 -36 46 -47 b 96 -56 78 -56 88 -56 b 169 -18 126 -56 154 -43 b 239 397 204 36 239 242 b 261 565 239 526 242 543 b 300 588 275 581 288 588 b 371 490 325 588 347 557 b 393 258 389 440 393 401 b 417 69 393 93 393 86 b 489 53 433 58 461 53 b 568 75 521 53 554 61 b 589 111 581 88 589 103 b 547 365 588 138 558 322 b 517 533 528 444 517 496 b 550 617 517 572 529 596 b 686 667 585 651 628 667 b 763 607 739 667 763 650 b 756 560 763 594 760 578 b 725 347 733 461 725 401 b 732 264 725 319 728 293 b 838 47 756 108 781 58 b 879 43 853 44 867 43 b 940 81 918 43 940 57 b 929 129 940 96 935 118 b 913 224 924 140 917 182 b 910 265 911 239 910 253 b 956 451 910 308 919 343 b 1006 649 990 554 1006 608 b 992 711 1006 672 1000 690 b 875 821 968 768 936 797 b 774 840 842 833 811 840 b 654 826 742 840 704 835 z "},"n":{"ha":764,"x_min":0,"x_max":0,"o":"m 171 865 b 125 788 146 850 135 832 b 111 690 118 756 111 713 b 82 540 111 668 97 600 b 38 307 47 404 38 357 b 40 251 38 290 39 272 b 100 86 49 158 69 103 b 181 75 111 81 147 75 b 268 222 257 75 268 75 b 267 319 268 250 267 281 l 267 390 b 322 658 267 563 279 611 b 392 689 344 682 361 689 b 528 429 458 689 467 671 b 547 294 542 376 547 335 b 493 106 547 232 531 178 b 483 53 486 93 483 72 b 497 1 483 29 489 8 b 574 -21 514 -11 546 -21 b 600 -18 583 -21 592 -19 b 678 174 633 -10 642 10 b 706 465 701 278 706 328 b 638 765 706 657 693 708 b 376 886 579 825 439 886 b 349 876 363 886 353 883 b 313 864 343 868 326 864 b 288 875 299 864 288 868 b 256 886 288 882 274 886 b 171 865 229 886 192 878 z "},"o":{"ha":697,"x_min":0,"x_max":0,"o":"m 279 842 b 124 650 218 806 175 751 b 67 529 96 596 71 542 b 35 315 46 471 35 390 b 56 163 35 256 42 200 b 321 -14 94 60 204 -14 b 474 22 388 -14 474 7 b 488 31 474 26 479 31 b 581 113 506 31 551 71 b 615 211 593 131 608 175 b 639 331 622 247 633 301 b 649 424 646 363 649 392 b 633 563 649 463 643 506 b 589 726 618 651 614 669 b 460 850 567 776 515 825 b 383 864 440 858 413 864 b 279 842 344 864 304 856 z m 388 693 b 458 529 426 674 438 647 b 474 372 468 471 474 418 b 353 158 474 236 429 158 b 292 172 335 158 314 163 b 232 226 275 179 247 204 b 206 343 210 260 206 274 l 206 365 b 326 697 207 528 254 656 b 351 708 339 704 344 708 b 388 693 358 708 367 703 z "},"p":{"ha":721,"x_min":0,"x_max":0,"o":"m 358 821 b 263 799 335 807 303 799 b 51 507 133 799 89 736 b 40 404 44 463 40 433 b 47 321 40 379 43 354 b 136 -22 63 213 101 65 b 146 -110 142 -36 146 -76 b 204 -211 146 -181 164 -211 b 301 -172 236 -211 289 -190 b 310 -82 306 -167 310 -126 b 350 31 310 14 317 31 b 536 121 388 31 490 81 b 638 304 578 157 614 224 b 663 390 646 332 656 369 b 675 528 669 411 674 472 l 675 543 b 588 771 675 657 657 704 b 490 828 549 808 538 814 b 422 840 463 836 440 840 b 358 821 399 840 381 835 z m 479 674 b 518 549 506 647 518 606 b 501 418 518 511 513 468 b 357 206 469 281 419 206 b 250 301 328 206 267 260 b 233 389 239 326 233 357 b 371 675 233 499 292 629 b 428 688 385 683 407 688 b 479 674 450 688 471 682 z "},"q":{"ha":806,"x_min":0,"x_max":0,"o":"m 501 788 b 442 764 476 771 461 764 b 421 767 435 764 429 765 b 397 768 414 768 406 768 b 347 761 379 768 360 765 b 253 718 303 744 260 725 b 186 681 250 715 219 697 b 57 567 110 640 90 624 b 24 417 35 529 28 500 b 22 358 22 393 22 374 b 44 265 22 315 28 297 b 114 193 61 232 85 208 b 164 165 139 181 161 168 b 235 132 176 153 221 132 b 254 125 243 132 253 129 b 507 46 263 106 456 46 b 514 47 510 46 513 47 b 532 49 521 49 526 49 b 554 24 549 49 554 42 b 550 -11 554 15 553 4 b 526 -117 543 -39 533 -86 b 506 -183 519 -147 510 -178 b 490 -218 501 -189 494 -204 b 488 -232 489 -224 488 -229 b 539 -243 488 -242 499 -243 l 558 -243 b 690 -172 643 -243 660 -235 b 749 179 719 -114 735 -17 b 756 307 753 231 756 271 b 685 574 756 408 738 463 b 649 699 669 607 653 664 b 574 817 639 778 614 817 b 501 788 553 817 529 807 z m 456 540 b 561 339 506 486 561 381 b 539 279 561 325 551 299 b 488 243 522 253 510 243 b 244 333 431 243 269 303 b 215 442 226 356 215 399 b 221 493 215 460 217 478 b 336 601 239 564 283 601 b 456 540 375 601 417 582 z "},"r":{"ha":513,"x_min":0,"x_max":0,"o":"m 247 771 b 194 753 222 758 208 753 b 164 760 185 753 176 756 b 101 772 140 768 119 772 b 54 757 81 772 64 767 b 43 733 47 750 43 746 b 69 601 43 715 51 682 b 110 179 88 521 103 357 b 142 11 115 26 115 22 b 189 0 160 3 175 0 b 242 29 211 0 229 10 b 268 303 258 54 263 94 b 386 618 276 613 278 618 b 481 647 442 618 456 622 b 510 693 497 664 510 683 b 389 782 510 722 447 768 b 318 793 356 789 335 793 b 247 771 296 793 279 786 z "},"s":{"ha":551,"x_min":0,"x_max":0,"o":"m 286 775 b 163 713 246 765 182 732 b 99 540 119 669 99 607 b 161 347 99 475 119 406 b 288 224 197 296 246 250 b 342 179 314 207 339 188 b 344 165 343 175 344 169 b 307 125 344 147 329 131 b 275 121 296 122 286 121 b 157 183 233 121 196 142 b 36 286 76 269 57 286 b 15 250 22 286 15 272 b 68 114 15 211 36 151 b 292 39 117 57 169 40 l 304 39 b 488 114 424 39 456 54 b 499 153 494 128 499 140 b 432 254 499 181 478 207 b 328 383 400 288 353 346 b 281 508 288 442 281 460 b 335 639 281 571 303 621 b 360 647 344 643 353 647 b 400 589 378 647 389 628 b 431 543 410 553 415 543 l 438 543 b 501 638 464 547 501 600 b 447 756 501 671 474 732 b 342 781 431 771 385 781 b 286 775 322 781 303 779 z "},"t":{"ha":679,"x_min":0,"x_max":0,"o":"m 200 1014 b 90 800 133 982 107 931 b 56 714 86 765 74 735 b 33 664 39 694 33 682 b 36 642 33 657 35 650 b 85 551 44 599 69 551 b 131 300 100 551 118 460 b 161 113 139 206 149 138 b 289 22 185 64 243 22 b 558 117 340 22 542 93 b 571 164 568 129 571 147 b 531 232 571 197 556 232 b 479 215 521 232 497 225 b 407 199 458 204 431 199 b 350 217 382 199 360 206 b 342 250 344 224 342 232 b 349 325 342 267 343 290 b 363 465 356 375 363 438 b 443 551 363 528 386 551 b 636 626 500 551 606 593 b 658 678 651 644 658 657 b 657 697 658 683 658 690 b 600 772 651 742 628 772 b 525 751 590 772 557 763 b 403 722 469 732 431 722 b 360 736 383 722 368 726 b 311 933 342 757 322 836 b 260 1038 304 993 282 1038 b 200 1014 251 1038 226 1026 z "},"u":{"ha":739,"x_min":0,"x_max":0,"o":"m 508 890 b 463 650 488 867 463 733 b 451 518 463 610 457 550 b 429 375 446 486 436 421 b 338 165 403 203 386 165 b 222 238 300 165 249 197 b 196 354 206 264 196 308 b 210 438 196 385 201 415 b 233 497 217 454 228 482 b 307 785 283 619 307 714 b 306 806 307 792 306 799 l 303 856 l 247 860 l 226 860 b 165 838 197 860 182 854 b 143 790 149 822 143 814 b 146 756 143 782 144 769 b 147 726 147 746 147 736 b 94 528 147 667 129 601 b 26 293 49 432 26 360 b 69 138 26 240 42 190 b 164 11 100 79 107 69 b 310 -61 211 -37 258 -61 b 442 -14 351 -61 394 -44 b 510 10 463 0 492 10 l 514 10 b 528 8 518 10 522 8 b 649 36 575 8 638 22 b 688 271 669 63 688 174 b 661 447 688 347 682 388 b 635 690 638 515 635 544 b 622 868 635 788 629 861 b 543 904 600 892 568 904 b 508 890 528 904 517 900 z "},"v":{"ha":675,"x_min":0,"x_max":0,"o":"m 42 767 b 29 731 32 757 29 747 b 32 697 29 722 31 711 b 171 456 46 606 76 556 b 290 221 247 375 274 325 b 342 36 307 119 325 54 b 381 22 350 28 364 22 b 444 43 401 22 425 29 b 511 271 481 69 493 115 b 535 425 518 332 529 401 b 600 574 547 478 590 574 b 653 694 613 574 653 667 b 651 700 653 696 651 699 b 581 736 644 719 610 736 b 563 733 575 736 568 735 b 431 481 476 707 439 636 b 418 351 426 419 422 361 b 397 332 414 339 406 332 b 365 363 386 332 375 343 b 326 432 357 379 339 410 b 289 497 314 454 297 482 b 268 529 281 511 272 526 b 225 613 264 532 244 569 b 142 756 168 735 167 740 b 75 778 118 771 94 778 b 42 767 61 778 50 775 z "},"w":{"ha":1036,"x_min":0,"x_max":0,"o":"m 86 801 b 32 733 67 785 42 754 b 21 699 25 718 21 708 b 43 646 21 686 28 672 b 86 583 58 619 79 592 b 190 419 113 557 167 471 b 250 157 219 353 235 292 b 331 -22 265 28 288 -22 b 393 171 382 -22 393 11 b 440 439 393 332 411 433 l 444 439 b 458 344 457 439 458 424 b 539 75 458 218 478 156 b 613 22 565 40 590 22 b 690 103 640 22 664 49 b 842 286 725 175 751 204 b 989 585 935 371 971 443 b 994 657 993 611 994 636 b 961 758 994 710 983 743 b 933 768 951 765 942 768 b 842 646 908 768 886 735 b 736 499 801 565 775 529 b 664 439 707 476 676 450 b 617 419 651 428 631 419 b 592 444 600 419 592 424 b 604 522 592 460 597 483 b 610 582 608 542 610 561 b 564 744 610 646 593 711 b 485 782 542 771 511 782 b 415 717 447 782 415 758 b 397 621 415 700 407 656 b 361 488 388 585 371 526 b 329 421 350 443 339 421 b 297 508 318 421 307 451 b 207 783 271 657 243 742 b 138 824 183 811 160 824 b 86 801 121 824 104 817 z "},"x":{"ha":603,"x_min":0,"x_max":0,"o":"m 67 788 b 40 722 51 768 40 740 b 50 707 40 713 43 707 b 76 676 54 707 67 693 b 122 613 86 660 106 632 b 151 567 139 593 151 574 b 160 550 151 560 156 551 b 206 476 164 547 185 515 b 235 392 226 438 235 415 b 210 308 235 369 226 346 b 176 256 200 288 185 264 b 163 233 168 247 163 238 b 113 172 163 229 140 201 b 18 11 51 108 18 49 b 74 -33 18 -17 36 -33 b 310 135 147 -33 231 26 b 344 167 325 156 335 167 b 390 104 357 167 368 147 b 506 -43 467 -37 468 -40 l 515 -43 b 567 -21 536 -43 550 -36 b 592 19 583 -4 592 6 b 578 61 592 31 588 42 b 544 138 569 79 554 114 b 428 375 506 232 435 375 b 403 472 414 375 403 422 b 407 522 403 489 404 506 b 488 682 419 603 429 619 b 546 761 529 725 546 746 b 528 786 546 769 539 778 b 454 815 504 806 476 815 b 426 808 443 815 433 813 b 383 794 415 801 396 794 b 274 696 361 794 274 715 b 258 682 274 688 267 682 b 218 710 244 682 225 693 b 115 817 201 753 140 817 b 67 788 101 817 81 804 z "},"y":{"ha":781,"x_min":0,"x_max":0,"o":"m 113 793 b 35 694 58 767 35 739 b 36 669 35 686 35 678 b 111 454 43 624 71 544 b 132 399 122 429 132 404 b 190 243 132 390 157 324 b 222 175 196 228 211 197 b 242 46 238 146 242 111 b 354 -133 242 -96 265 -132 l 356 -133 b 496 -37 436 -133 496 -93 b 474 22 496 -26 486 1 b 394 233 403 146 394 168 b 467 403 394 310 417 363 b 521 447 486 419 510 439 b 549 464 532 457 544 464 b 588 489 553 464 571 475 b 658 547 604 503 635 528 b 771 760 714 592 771 706 b 765 782 771 768 768 776 b 699 814 751 804 728 814 b 560 747 656 814 601 790 b 518 694 538 724 518 700 b 504 671 518 689 511 679 b 463 618 497 663 478 639 b 286 444 404 540 307 444 l 285 444 b 261 531 274 449 267 475 b 186 819 242 751 232 819 b 113 793 168 819 144 808 z "},"z":{"ha":508,"x_min":0,"x_max":0,"o":"m 136 850 b 29 760 50 814 29 796 b 151 707 29 715 49 707 b 264 678 232 707 264 703 b 240 617 264 664 256 644 b 115 331 158 464 140 421 b 58 28 75 182 60 104 l 57 -39 l 217 -43 l 294 -43 b 403 -39 350 -43 393 -42 b 493 72 443 -29 493 32 b 478 121 493 92 486 114 b 286 176 446 147 343 176 b 228 186 254 176 228 181 b 267 267 228 192 244 228 b 313 356 289 306 310 344 b 329 375 315 367 324 375 b 339 397 335 375 339 385 b 347 424 339 410 342 421 b 372 493 353 426 364 458 b 403 618 381 528 394 585 b 436 808 424 699 436 769 b 433 831 436 817 435 825 b 299 882 424 867 385 882 l 292 882 b 136 850 229 882 194 875 z "},"{":{"ha":528,"x_min":0,"x_max":0,"o":"m 371 1201 b 297 1117 356 1194 324 1156 b 242 1033 271 1078 247 1040 b 218 994 236 1028 225 1008 b 197 963 211 981 201 965 b 175 929 193 960 183 944 b 97 647 125 842 119 825 b 29 506 83 536 72 515 b 0 485 7 501 0 499 b 3 461 0 479 1 471 b 79 340 15 396 42 354 b 163 163 126 324 163 246 b 322 -74 163 82 215 6 b 449 -133 388 -122 411 -133 b 514 -76 489 -133 514 -112 b 451 -24 514 -40 494 -24 b 301 65 394 -24 332 13 b 239 278 275 111 264 151 b 217 369 232 314 222 356 b 211 393 214 378 211 385 b 242 492 211 411 219 436 b 317 810 306 647 317 689 b 415 1074 317 979 338 1033 b 468 1136 457 1096 465 1106 l 468 1143 b 417 1215 468 1179 444 1215 b 371 1201 407 1215 386 1210 z "},"|":{"ha":378,"x_min":0,"x_max":0,"o":"m 69 1131 b 63 1093 64 1125 63 1111 b 85 961 63 1058 71 1006 b 154 799 97 922 129 849 b 200 640 193 721 200 696 b 160 481 200 575 176 481 b 146 461 154 481 149 472 b 85 382 143 450 115 415 b 15 240 36 329 15 297 b 40 81 15 203 24 154 b 60 -22 47 50 56 4 b 126 -100 67 -75 96 -100 b 194 -8 160 -100 194 -68 b 206 72 194 7 199 43 b 226 168 213 101 221 144 b 315 475 267 350 279 393 b 358 593 332 511 350 564 b 365 642 363 611 365 626 b 292 842 365 682 346 728 b 215 1028 264 899 231 983 b 175 1125 200 1072 182 1117 b 110 1138 167 1133 136 1138 b 69 1131 92 1138 75 1136 z "},"}":{"ha":501,"x_min":0,"x_max":0,"o":"m 43 1100 b 35 1079 38 1094 35 1086 b 106 1006 35 1056 61 1028 b 251 875 161 978 197 946 b 300 622 304 806 265 690 b 369 568 328 569 369 611 b 263 460 369 489 340 489 b 176 222 224 444 192 296 b 140 99 169 186 153 131 b 76 31 121 49 113 40 b 11 -28 32 19 11 0 b 13 -37 11 -31 13 -35 b 56 -67 15 -58 24 -64 l 65 -67 b 242 185 135 -67 179 -3 b 396 433 276 289 263 336 b 499 543 456 476 499 513 b 440 596 499 563 482 581 b 411 686 422 603 415 649 b 258 944 400 781 375 824 b 151 1061 201 1004 151 1057 b 61 1117 151 1068 72 1117 b 43 1100 58 1117 50 1108 z "},"~":{"ha":632,"x_min":0,"x_max":0,"o":"m 121 658 b 72 531 97 629 81 588 b 71 507 71 521 71 514 b 82 479 71 489 75 479 b 111 524 90 479 101 493 b 164 568 124 563 131 568 b 319 457 204 568 228 550 b 436 382 369 407 404 382 b 515 425 461 382 486 397 b 558 506 544 453 558 478 b 546 553 558 521 554 536 b 490 590 531 585 522 590 b 446 579 469 590 450 585 b 424 569 442 572 435 569 b 351 593 407 569 383 576 b 299 624 325 607 301 619 b 247 654 296 628 272 642 b 167 676 218 669 189 676 b 121 658 147 676 131 671 z "}}}
